<mxfile host="Electron" modified="2023-04-15T10:58:01.593Z" agent="Mozilla/5.0 (X11; Linux x86_64) AppleWebKit/537.36 (KHTML, like Gecko) draw.io/21.1.2 Chrome/106.0.5249.199 Electron/21.4.3 Safari/537.36" etag="g5hbWoJSj4IZEREHxywe" version="21.1.2" type="device">
  <diagram name="Page-1" id="HUS-b-2fFfd0ITWpmIsU">
    <mxGraphModel dx="1545" dy="1095" grid="1" gridSize="10" guides="1" tooltips="1" connect="1" arrows="1" fold="1" page="1" pageScale="1" pageWidth="850" pageHeight="1100" math="0" shadow="0">
      <root>
        <mxCell id="0" />
        <mxCell id="1" parent="0" />
        <mxCell id="XQrB3ldbQ0HkZ4SikYRE-21" style="edgeStyle=orthogonalEdgeStyle;rounded=0;orthogonalLoop=1;jettySize=auto;html=1;strokeWidth=6;fillColor=#f8cecc;strokeColor=#b85450;" parent="1" source="XQrB3ldbQ0HkZ4SikYRE-20" edge="1">
          <mxGeometry relative="1" as="geometry">
            <mxPoint x="600" y="400" as="targetPoint" />
          </mxGeometry>
        </mxCell>
        <mxCell id="XQrB3ldbQ0HkZ4SikYRE-20" value="" style="ellipse;whiteSpace=wrap;html=1;aspect=fixed;" parent="1" vertex="1">
          <mxGeometry x="9.38" y="158.75" width="481.25" height="481.25" as="geometry" />
        </mxCell>
        <mxCell id="XQrB3ldbQ0HkZ4SikYRE-8" style="edgeStyle=orthogonalEdgeStyle;rounded=0;orthogonalLoop=1;jettySize=auto;html=1;entryX=0;entryY=0.5;entryDx=0;entryDy=0;curved=1;exitX=0.5;exitY=1;exitDx=0;exitDy=0;fillColor=#f8cecc;strokeColor=#b85450;strokeWidth=3;" parent="1" source="XQrB3ldbQ0HkZ4SikYRE-1" target="XQrB3ldbQ0HkZ4SikYRE-6" edge="1">
          <mxGeometry relative="1" as="geometry" />
        </mxCell>
        <mxCell id="XQrB3ldbQ0HkZ4SikYRE-1" value="Immich" style="rounded=0;whiteSpace=wrap;html=1;shadow=1;fillColor=#dae8fc;strokeColor=#6c8ebf;" parent="1" vertex="1">
          <mxGeometry x="20" y="240" width="120" height="60" as="geometry" />
        </mxCell>
        <mxCell id="XQrB3ldbQ0HkZ4SikYRE-10" style="edgeStyle=orthogonalEdgeStyle;rounded=0;orthogonalLoop=1;jettySize=auto;html=1;entryX=0;entryY=0.25;entryDx=0;entryDy=0;curved=1;fillColor=#f8cecc;strokeColor=#b85450;strokeWidth=3;" parent="1" source="XQrB3ldbQ0HkZ4SikYRE-2" target="XQrB3ldbQ0HkZ4SikYRE-6" edge="1">
          <mxGeometry relative="1" as="geometry" />
        </mxCell>
        <mxCell id="XQrB3ldbQ0HkZ4SikYRE-2" value="Immich" style="rounded=0;whiteSpace=wrap;html=1;shadow=1;fillColor=#dae8fc;strokeColor=#6c8ebf;" parent="1" vertex="1">
          <mxGeometry x="90" y="200" width="120" height="60" as="geometry" />
        </mxCell>
        <mxCell id="XQrB3ldbQ0HkZ4SikYRE-9" style="edgeStyle=orthogonalEdgeStyle;rounded=0;orthogonalLoop=1;jettySize=auto;html=1;entryX=1;entryY=0.5;entryDx=0;entryDy=0;curved=1;exitX=0.5;exitY=1;exitDx=0;exitDy=0;fillColor=#f8cecc;strokeColor=#b85450;strokeWidth=3;" parent="1" source="XQrB3ldbQ0HkZ4SikYRE-5" target="XQrB3ldbQ0HkZ4SikYRE-6" edge="1">
          <mxGeometry relative="1" as="geometry" />
        </mxCell>
        <mxCell id="XQrB3ldbQ0HkZ4SikYRE-5" value="Database" style="rounded=0;whiteSpace=wrap;html=1;shadow=1;fillColor=#f5f5f5;strokeColor=#666666;fontColor=#333333;" parent="1" vertex="1">
          <mxGeometry x="360" y="240" width="120" height="60" as="geometry" />
        </mxCell>
        <mxCell id="XQrB3ldbQ0HkZ4SikYRE-11" style="edgeStyle=orthogonalEdgeStyle;rounded=0;orthogonalLoop=1;jettySize=auto;html=1;entryX=1;entryY=0.25;entryDx=0;entryDy=0;curved=1;fillColor=#f8cecc;strokeColor=#b85450;strokeWidth=3;" parent="1" source="XQrB3ldbQ0HkZ4SikYRE-4" target="XQrB3ldbQ0HkZ4SikYRE-6" edge="1">
          <mxGeometry relative="1" as="geometry" />
        </mxCell>
        <mxCell id="XQrB3ldbQ0HkZ4SikYRE-4" value="Database" style="rounded=0;whiteSpace=wrap;html=1;shadow=1;fillColor=#f5f5f5;strokeColor=#666666;fontColor=#333333;" parent="1" vertex="1">
          <mxGeometry x="280" y="200" width="120" height="60" as="geometry" />
        </mxCell>
        <mxCell id="XQrB3ldbQ0HkZ4SikYRE-12" style="edgeStyle=orthogonalEdgeStyle;rounded=0;orthogonalLoop=1;jettySize=auto;html=1;entryX=0.5;entryY=0;entryDx=0;entryDy=0;fillColor=#f8cecc;strokeColor=#b85450;strokeWidth=3;" parent="1" source="XQrB3ldbQ0HkZ4SikYRE-3" target="XQrB3ldbQ0HkZ4SikYRE-6" edge="1">
          <mxGeometry relative="1" as="geometry" />
        </mxCell>
        <mxCell id="XQrB3ldbQ0HkZ4SikYRE-3" value="Immich" style="rounded=0;whiteSpace=wrap;html=1;shadow=1;fillColor=#dae8fc;strokeColor=#6c8ebf;" parent="1" vertex="1">
          <mxGeometry x="190" y="170" width="120" height="60" as="geometry" />
        </mxCell>
        <mxCell id="XQrB3ldbQ0HkZ4SikYRE-6" value="snap" style="whiteSpace=wrap;html=1;aspect=fixed;shadow=1;fillColor=#e1d5e7;strokeColor=#9673a6;" parent="1" vertex="1">
          <mxGeometry x="210" y="350" width="80" height="80" as="geometry" />
        </mxCell>
        <mxCell id="XQrB3ldbQ0HkZ4SikYRE-18" style="edgeStyle=orthogonalEdgeStyle;rounded=0;orthogonalLoop=1;jettySize=auto;html=1;entryX=1;entryY=0.75;entryDx=0;entryDy=0;curved=1;fillColor=#f8cecc;strokeColor=#b85450;strokeWidth=3;" parent="1" source="XQrB3ldbQ0HkZ4SikYRE-13" target="XQrB3ldbQ0HkZ4SikYRE-6" edge="1">
          <mxGeometry relative="1" as="geometry" />
        </mxCell>
        <mxCell id="XQrB3ldbQ0HkZ4SikYRE-13" value="Tools" style="rounded=0;whiteSpace=wrap;html=1;fillColor=#ffe6cc;strokeColor=#d79b00;" parent="1" vertex="1">
          <mxGeometry x="280" y="490" width="120" height="60" as="geometry" />
        </mxCell>
        <mxCell id="XQrB3ldbQ0HkZ4SikYRE-17" style="edgeStyle=orthogonalEdgeStyle;rounded=0;orthogonalLoop=1;jettySize=auto;html=1;entryX=0.5;entryY=1;entryDx=0;entryDy=0;fillColor=#f8cecc;strokeColor=#b85450;strokeWidth=3;" parent="1" source="XQrB3ldbQ0HkZ4SikYRE-14" target="XQrB3ldbQ0HkZ4SikYRE-6" edge="1">
          <mxGeometry relative="1" as="geometry" />
        </mxCell>
        <mxCell id="XQrB3ldbQ0HkZ4SikYRE-14" value="Automatic updates" style="rounded=0;whiteSpace=wrap;html=1;fillColor=#ffe6cc;strokeColor=#d79b00;" parent="1" vertex="1">
          <mxGeometry x="190" y="570" width="120" height="60" as="geometry" />
        </mxCell>
        <mxCell id="XQrB3ldbQ0HkZ4SikYRE-19" style="edgeStyle=orthogonalEdgeStyle;rounded=0;orthogonalLoop=1;jettySize=auto;html=1;entryX=0;entryY=0.75;entryDx=0;entryDy=0;curved=1;fillColor=#f8cecc;strokeColor=#b85450;strokeWidth=3;" parent="1" source="XQrB3ldbQ0HkZ4SikYRE-15" target="XQrB3ldbQ0HkZ4SikYRE-6" edge="1">
          <mxGeometry relative="1" as="geometry" />
        </mxCell>
        <mxCell id="XQrB3ldbQ0HkZ4SikYRE-15" value="New features" style="rounded=0;whiteSpace=wrap;html=1;fillColor=#ffe6cc;strokeColor=#d79b00;" parent="1" vertex="1">
          <mxGeometry x="90" y="490" width="120" height="60" as="geometry" />
        </mxCell>
        <mxCell id="J0shYlUsLG8rRep_C60e-2" value="" style="ellipse;whiteSpace=wrap;html=1;aspect=fixed;shadow=1;" parent="1" vertex="1">
          <mxGeometry x="20.000000000000004" y="690" width="481.25" height="481.25" as="geometry" />
        </mxCell>
        <mxCell id="J0shYlUsLG8rRep_C60e-3" style="edgeStyle=orthogonalEdgeStyle;rounded=0;orthogonalLoop=1;jettySize=auto;html=1;entryX=0;entryY=0.5;entryDx=0;entryDy=0;curved=1;exitX=0.5;exitY=1;exitDx=0;exitDy=0;fillColor=#f8cecc;strokeColor=#b85450;strokeWidth=3;" parent="1" source="J0shYlUsLG8rRep_C60e-4" target="J0shYlUsLG8rRep_C60e-13" edge="1">
          <mxGeometry relative="1" as="geometry" />
        </mxCell>
        <mxCell id="J0shYlUsLG8rRep_C60e-4" value="Immich" style="rounded=0;whiteSpace=wrap;html=1;shadow=1;fillColor=#dae8fc;strokeColor=#6c8ebf;" parent="1" vertex="1">
          <mxGeometry x="30.62" y="771.25" width="120" height="60" as="geometry" />
        </mxCell>
        <mxCell id="J0shYlUsLG8rRep_C60e-5" style="edgeStyle=orthogonalEdgeStyle;rounded=0;orthogonalLoop=1;jettySize=auto;html=1;entryX=0;entryY=0.25;entryDx=0;entryDy=0;curved=1;fillColor=#f8cecc;strokeColor=#b85450;strokeWidth=3;" parent="1" source="J0shYlUsLG8rRep_C60e-6" target="J0shYlUsLG8rRep_C60e-13" edge="1">
          <mxGeometry relative="1" as="geometry" />
        </mxCell>
        <mxCell id="J0shYlUsLG8rRep_C60e-6" value="Immich" style="rounded=0;whiteSpace=wrap;html=1;shadow=1;fillColor=#dae8fc;strokeColor=#6c8ebf;" parent="1" vertex="1">
          <mxGeometry x="100.62" y="731.25" width="120" height="60" as="geometry" />
        </mxCell>
        <mxCell id="J0shYlUsLG8rRep_C60e-7" style="edgeStyle=orthogonalEdgeStyle;rounded=0;orthogonalLoop=1;jettySize=auto;html=1;entryX=1;entryY=0.5;entryDx=0;entryDy=0;curved=1;exitX=0.5;exitY=1;exitDx=0;exitDy=0;fillColor=#f8cecc;strokeColor=#b85450;strokeWidth=3;" parent="1" source="J0shYlUsLG8rRep_C60e-8" target="J0shYlUsLG8rRep_C60e-13" edge="1">
          <mxGeometry relative="1" as="geometry" />
        </mxCell>
        <mxCell id="J0shYlUsLG8rRep_C60e-8" value="Database" style="rounded=0;whiteSpace=wrap;html=1;shadow=1;fillColor=#f5f5f5;strokeColor=#666666;fontColor=#333333;" parent="1" vertex="1">
          <mxGeometry x="370.62" y="771.25" width="120" height="60" as="geometry" />
        </mxCell>
        <mxCell id="J0shYlUsLG8rRep_C60e-9" style="edgeStyle=orthogonalEdgeStyle;rounded=0;orthogonalLoop=1;jettySize=auto;html=1;entryX=1;entryY=0.25;entryDx=0;entryDy=0;curved=1;fillColor=#f8cecc;strokeColor=#b85450;strokeWidth=3;" parent="1" source="J0shYlUsLG8rRep_C60e-10" target="J0shYlUsLG8rRep_C60e-13" edge="1">
          <mxGeometry relative="1" as="geometry" />
        </mxCell>
        <mxCell id="J0shYlUsLG8rRep_C60e-10" value="Database" style="rounded=0;whiteSpace=wrap;html=1;shadow=1;fillColor=#f5f5f5;strokeColor=#666666;fontColor=#333333;" parent="1" vertex="1">
          <mxGeometry x="290.62" y="731.25" width="120" height="60" as="geometry" />
        </mxCell>
        <mxCell id="J0shYlUsLG8rRep_C60e-11" style="edgeStyle=orthogonalEdgeStyle;rounded=0;orthogonalLoop=1;jettySize=auto;html=1;entryX=0.5;entryY=0;entryDx=0;entryDy=0;fillColor=#f8cecc;strokeColor=#b85450;strokeWidth=3;" parent="1" source="J0shYlUsLG8rRep_C60e-12" target="J0shYlUsLG8rRep_C60e-13" edge="1">
          <mxGeometry relative="1" as="geometry" />
        </mxCell>
        <mxCell id="J0shYlUsLG8rRep_C60e-12" value="Immich" style="rounded=0;whiteSpace=wrap;html=1;shadow=1;fillColor=#dae8fc;strokeColor=#6c8ebf;" parent="1" vertex="1">
          <mxGeometry x="200.62" y="701.25" width="120" height="60" as="geometry" />
        </mxCell>
        <mxCell id="J0shYlUsLG8rRep_C60e-13" value="" style="whiteSpace=wrap;html=1;aspect=fixed;shadow=1;fillColor=#e1d5e7;strokeColor=#9673a6;" parent="1" vertex="1">
          <mxGeometry x="220.62" y="881.25" width="80" height="80" as="geometry" />
        </mxCell>
        <mxCell id="J0shYlUsLG8rRep_C60e-14" style="edgeStyle=orthogonalEdgeStyle;rounded=0;orthogonalLoop=1;jettySize=auto;html=1;entryX=1;entryY=0.75;entryDx=0;entryDy=0;curved=1;fillColor=#f8cecc;strokeColor=#b85450;strokeWidth=3;" parent="1" source="J0shYlUsLG8rRep_C60e-15" target="J0shYlUsLG8rRep_C60e-13" edge="1">
          <mxGeometry relative="1" as="geometry" />
        </mxCell>
        <mxCell id="J0shYlUsLG8rRep_C60e-15" value="Tools" style="rounded=0;whiteSpace=wrap;html=1;fillColor=#ffe6cc;strokeColor=#d79b00;" parent="1" vertex="1">
          <mxGeometry x="290.62" y="1021.25" width="120" height="60" as="geometry" />
        </mxCell>
        <mxCell id="J0shYlUsLG8rRep_C60e-16" style="edgeStyle=orthogonalEdgeStyle;rounded=0;orthogonalLoop=1;jettySize=auto;html=1;entryX=0.5;entryY=1;entryDx=0;entryDy=0;fillColor=#f8cecc;strokeColor=#b85450;strokeWidth=3;" parent="1" source="J0shYlUsLG8rRep_C60e-17" target="J0shYlUsLG8rRep_C60e-13" edge="1">
          <mxGeometry relative="1" as="geometry" />
        </mxCell>
        <mxCell id="J0shYlUsLG8rRep_C60e-17" value="Automatic updates" style="rounded=0;whiteSpace=wrap;html=1;fillColor=#ffe6cc;strokeColor=#d79b00;" parent="1" vertex="1">
          <mxGeometry x="200.62" y="1101.25" width="120" height="60" as="geometry" />
        </mxCell>
        <mxCell id="J0shYlUsLG8rRep_C60e-18" style="edgeStyle=orthogonalEdgeStyle;rounded=0;orthogonalLoop=1;jettySize=auto;html=1;entryX=0;entryY=0.75;entryDx=0;entryDy=0;curved=1;fillColor=#f8cecc;strokeColor=#b85450;strokeWidth=3;" parent="1" source="J0shYlUsLG8rRep_C60e-19" target="J0shYlUsLG8rRep_C60e-13" edge="1">
          <mxGeometry relative="1" as="geometry" />
        </mxCell>
        <mxCell id="J0shYlUsLG8rRep_C60e-19" value="New features" style="rounded=0;whiteSpace=wrap;html=1;fillColor=#ffe6cc;strokeColor=#d79b00;" parent="1" vertex="1">
          <mxGeometry x="100.62" y="1021.25" width="120" height="60" as="geometry" />
        </mxCell>
        <mxCell id="J0shYlUsLG8rRep_C60e-20" value="" style="shape=image;aspect=fixed;image=data:image/png,iVBORw0KGgoAAAANSUhEUgAAAdYAAAHWCAYAAADKGqhaAAAACXBIWXMAAA79AAAO/QG42tXEAAAAGXRFWHRTb2Z0d2FyZQB3d3cuaW5rc2NhcGUub3Jnm+48GgAAIABJREFUeJzsnXd4XFeZ/z/vnapqO+7dcknske0UAykQkpCEkAQICYlT6AE2LIHfQmgLS2cD2YVlC32BJRtCikMqNYSQhJKwgGPHVnHvVZasbpWZe9/fH3dkaWSVmdHM3Cnn8zx+rLk6c87X1uh+7znnPe8rqorBYMgODSLBGMzwwWxglsBUhcnAFIn/HX9dITBJwQdUM/g3wCTAGmWILiAKOEA7gMIJoEugI36tTaBdoUOgFTgCHI1BUxSOrFFtz86/3mAoTcQYq8GQPg0is2yo8UGNA4sEaoAFCnMsmKkw3WuNSdALHFXYa8FehT3APoW9PthzAvasUY16rNFgKBiMsRoM47BHJNwNZygsB1YAK8T9+nQg7K26nBAFdgCNClsFtgCNvVC/RvWEx9oMhrzDGKvBMIQtIlNjcI64f85WOAdYwuhLsSWLgK2wVWGDBRuADTZsWKXa6rU2g8FLjLEaSpYGkaDAOQoXKLwSeBmwwGtdRcAWgeeBP1jw/HLVbV4LMhhyiTFWQ8mwSaQiABfZ8Cpx/7xMocxrXSVAk8CfFJ624DcrVLd7LchgyCbGWA1Fy0MivlpY48DlApcBFwBBr3WVOgK7FZ4CfhOFp89SbfNak8GQSYyxGoqKjSKTA3ClwDUKlwOnea3JMCZRgWcdeMSCxyKqR7wWZDBMFGOshoKnTmS+wBvjZnoxEPBakyEtHOAFgUdisG616gGvBRkM6WCM1VCQbBaZYsEbFN4mcCkgXmsyZJQBk70HuC+i2uW1IIMhWYyxGgqG9SLlZfAm4BaF12JmpqVCp8JPBX5Yq/onr8UYDONhjNWQ92wWWW7BO4H3YvZMS52NAt/pgXtNcgpDvmKM1ZCX7BEJd8ENArfhnjE1GIbSrPB9B75t9mIN+YYxVkNesU1kWgxuV/gAMM1rPYa8px+42wdfWa66x2sxBgMYYzXkCY0iCxXuUHg3UOG1HkPBERV4wIJ/NpmeDF5jjNXgKY0iy2z4nMCNgN9rPYaCJwbcLfAZcybW4BXGWA2esElkng8+A9yKMVRD5ulW+Fol3LVItddrMYbSwhirIadsE5kWhU8Bf09plFwzeMsehU+sVF3ntRBD6WCM1ZAbRKx6eCvwdWCq13IMJcevBW6LqO7zWoih+DHGasg6m0XWWPBt4BVeazGUNB0Kn10J30DV8VqMoXgxxmrIGg0ipwFfVXgXJuWgIX/4ncC7zOzVkC2MsRqyQp3I5QL/A8zzWovBMByBdgduXan6iNdaDMWHMVZDRnlBpGwS3KXwQcws1ZDfqMA3euCja1SjXosxFA/GWA0Zo17k5cB9wFKvtRgMKfCsDTeuVm3yWoihOLC8FmAoDupE3irwHMZUDYXHxX748xaR070WYigOjLEaJsSzIv56kbsEfqxQ5rUegyEdFGpseL5exBR8MEwYsxRsSJtNIjN88ChwgddaDIYM0a1w40rVX3gtxFC4GGM1pEU8af6TCmd4rcVgyDBRhWuNuRrSxRirIWUaRCIKT2KO0hiKFIEehatrVZ/xWouh8DB7rIaU2CxyvsIfMKZqKGLi8QKPN4qc57UWQ+FhZqyGpGkUOceBZ4Bqr7UYDDmi1YJzV6hu91qIoXAwM1ZDUjSILHXglxhTNZQWUxx4YoeI+dwbksYYq2FcXhKZq/AUMNNrLQaDByzvh7sRMZnEDElhjNUwJptEKnzwa2CR11oMBq9QuLYOPuK1DkNhYIzVMCZ++I7ASq91GAxeI/CVBpGzvdZhyH+MsRpGpUHkAwpv81qHwZAn+BW+95CIz2shhvzGGKthRBpEzlX4N691GAx5xstr4UNeizDkN+a4jeEU9oiEu+ElwCQlNxhO5YQNK1er7vZaiCE/MTNWwyl0wycxpmowjEa5Dz7ntQhD/mJmrIYEtoicbruz1bDXWgyGfEXAtmHlKtUtXmsx5B9mxmpIwIbvYUzVYBgTBZ/Ap73WYchPzIzVcJJ6kStwz6waDIZxMLNWw2iYGathKOYJ3GBIEgWfBbd5rcOQf5gZqwGABpFLFX7rtQ6DocBoEZgTUe33WoghfzAzVgMAamarBkM6TBW4ymsRhvzCGKuBBpGlwEVe6zAYChEH3um1BkN+YYzVQDxtoancYTCkx5XrRcq9FmHIH4yxGgBu9lqAwVDABMvgfK9FGPIHY6wlTp3IBcAyr3UYDAXOJV4LMOQPxlhLHMsEXhgME0aNsRqGYIzV8CqvBRgMRcDL94iYjGUGwBhrSbNDJKRwrtc6DIYiIHACFnstwpAfGGMtYfrgZZi8wAZDpljqtQBDfmCMtYRR11gNBkNmMMZqAIyxljQW1HitwWAoFhSWeK3BkB8YYy1tFngtwGAoIuZ6LcCQHxhjLWEcWOi1BoOhiDDxCgbAGGtJY8F8rzUYDEVEyGsBhvzAGGtpU+m1AIOhWBBjrIY4xlhLGAWf1xoMhmJBzVKwIY4x1tLGVLQxGDJHzGsBhvzAGGtpY2asBkPmaPZagCE/MMZa2jheCzAYigWF415rMOQHxlhLmyavBRgMxYJlZqyGOMZYS5uDXgswGIoFhRavNRjyA2Ospc0hrwUYDMWCmgdVQxxjrCWMGGM1GDLJJq8FGPIDY6wljMJerzUYDEWC40Cj1yIM+YEx1hLGgvVeazAYioSdq1W7vRZhyA/8XgsweEcf/C0AikkUkS2iwGFgP+5RjFaBVqDVgVYLOoCBm3G/DH4NgA1iweSB1wqTFSYJTAImC0xS9+9p6uZ9ngkEcvEPMyQiUOe1BkP+YIy1hDlLta1eZDtwutdaCpgWYIvAFge2Cuyy4KAF+86AI6jm7qywiDS45jrLgXkWLAKWObBU3CLci4BgzvSUFhu9FmDIH4yxljgKfxVjrMng4Brn33D/z17qhcazVY95LewkqhqBI7h/TrnRPyTiWw4LfbAKOFPdv88CFmO2hSbK77wWYMgfRFW91mDwkHqR24Fveq0jD+kC/gA8B/wlBOuXqnZ4rCkrNIhUOrBa4FyF8wTOx5QUTIXOXpi6RjXqtRBDfmCMtcRpFFnowB6vdeQBvcCfFJ4BnmmGv1ysWrJJ1beKzIm6Jvsq4BJgNWZWOxpP1Kpe47UIQ/5gjNVAvciLwNle6/CAFuDnCo878BsT1Tk620SmxeBidU32NcByrzXlCwIfjKiaVR/DScweqwGBx7VEjFXgoMJDCo83wh9uULW91lQInK7aDPw0/mdgpeNq4PW4ZluytUhj8JTXGgz5hZmxpoqItdmNrpwvsACYBVQIhAV8CrZAmwMnBHYD+/yw6wzVTk91j0GDyFkKG7zWkUU6gUct+PEK+F1OI3VLgPUi5WVwmbpG+yZghteackhjrWrEaxGG/MIY6zhsFpki7hP5xeLO6s4EqlLsxgG2CfxN4QUHfr1KdVfGxU6ABpFdCjVe68ggCjwlcE8PPLpG9YTXgkqBh0R8tXCRA2stuE5huteasonApyKqX/Fax3jEH37OcNzf8SnAFBmsx6wCTQqHBQ6Uw85Fqr0eyi14jLGOQJ3IfOAmgTcLvEyzUxB8G/CIwj0rVT1PhVYv8mngS17rmCgC7cDdFnx7ueo2r/WUMnGTvVjhRuAGhiS7KBIcgZqI6j6vhQynQSSi7mTg1Qrn4a6uJZsIJgbU465iPaPw5ErVo9nSWowYY43TIBIErnfgtngkZC4jIP+i8M0+eMCrkP0GkVkK+yjQzD3qZr75lgX3RlS7vNZjSGSPSLgLrgHebsEVWXpYzTXP1Kq+xmsRA9SLnCmwVt2HmGUZ7FoVNljwE4H7V6gezmDfRUnJG+sWkakOfEDhfbj7pV6yH/h6BXzXi6WYOpEHBdbmetwJ8keBL0dUf+W1kNHYKDI5CHNxsyJNjacmnAxMsQa/9gtMdkAEQgLlo/XnuKkP+wV6cL/uEOhwoNuCToVjAseAI1FoCsCxiGp/Lv6tydAoMtuGtwjcCqzwWk+6CLwronq3lxoGJgQK/wC8ItvjCdgKvxT4j4iqSYoxCiVrrOtFJoXhDuBDQLXXeoaxB/hULTxADn9A9SKXUCAZZASesuHOVarPea1lm8i0PlhmwenizhQWAvMVZgPzGMMkc8hx4ACwR2CPwm6FvRbs8cEOT4LrRKQOLrLgfQrXUljpFrv9MNuroMQdIqFeeJ/AJ3A/Z16wQeDLEXg4l/epQqDkjPVZEf80eL/A53E38fOZP9nw7tWqW3MymojUu3sreTuLEPgF8MWI6l9yPfYOkeoonGXDWfFAtgiukeb75ygZ9gKNAnUObLGgLgZ1uTrbWycy04JbFf4ON+o+3/l2rertuR70IRFfBN4FfAZ33zQf+KvAP5oZ7CAlZawNIheqm75vtddaUqAX+HwDfC0XZy7rRN4t8INsj5MGf3XgY7maoTaIBB14GfBKgZfjGukSSqgSkIAdrzH616E5krO5rBw3jjfhriZdkK1xJoKADSyPqO7I5bibRdb44HsKa3I5bgr8NAYfOlP1oNdCvKYkjHWTSIUfvqZwG4V7Y3zahltWqzZlc5D1IoGwezNdks1xUmCXwqdWwrpsLjc1iFQCr1J4pcKrLXi5Qlm2xitg+oG/AM8IPNcOz5+v2pONgRpEznXgDoHryK9kNo/Uqr45V4PFP5t3ArcXQNBXp8A/ReCbpbw8XPTGulnkfAv+l8xGyXnFIYEbI6p/zOYg9SLvAO7O5hjjIdCu8HmBb2drhrRZZLkPrla4EriQwtrjyxf6gL8IPO3AoytVN2V6gC0iixz4MPDefHjYceCCVaov5GKsBpFXKPwEt+xfwaDwWxveWaqz1+I1Vrc25SeAfy6Ap7xU6APeWav6QLYGiC/HNeBdObn7BD4SUT2SyU6HnKu8VuCqIkuIkS9sBx4GHqhVfSmTHdeJzBR3ifjvST1JS6Z4vlb1ldke5CER3wr4R4HPUaBH4IDjFrx7hepjXgvJNUVprOtFJoXgbnH3aooRVfjEStWvZmuABpFb4k/KOUNgK/D+jAZBuAFZFyjcKO75Pq+PVJUSzwt8C/hpJlcdGkROix8v+X/kOOmEwnUrVR/N5hibRaZYcD9wRTbHyREK/EsDfLqU8nIXnbFuEjnDBz+jOJZ+x0Tg8xHVL2Sj7/is9SWgNhv9D6NX4Z8t+GqmbsBbRE634d3ATeRP9GSpchT4ng/+a7lqS6Y6jR+Z+wjukbmsz2AF1kfg5Vne648oPE6BLf2Oh8JvFdauUm31WksuKCpjrRO5QOAJYKrXWnJFNs21QeQ1Ck9no+8BBNYDb4+oNky0r2dF/NPhGnXP911K4QaqFSudAt+w4OuZNNgNItOD8EncJeKsVdkRuCyimrXfh0aRqxx4AO+WubNNow+uWq66x2sh2aZojLVO5FoLfpIPwQ25RuCjEdV/y0bf9SL34876Mk1M4c4+uHOiaRwbRWY7buas9wBzMiPPkEU6Fb4Zg389S7UtU51uEpnng8/invPMdBTxk7Wqr8twnyeJBwz+gPyKfs4GRxVev1L1b14LySZFYaz1Iu8Q+GGRBSmlgiNwU0T1oUx3vFVkTgy2kNmn6EaFt0/0l2uryBzbDVDLi2jRCdABNCu0xVMSduDO7joU2gXa1N2rGqBPIKFaj0KFQrlAlcAkdbM9lStMttzvTcNNq5gPWaAAiKdd/HQ9/DCT+291Iiss+Gq8jF0mcATWRFQ3Zqi/BOpEPibwL5TICku8UMYVEdX/81pLtih4Y60TuVXg++Q2aX4+0qtw6UrV5zPdcYPIHQqZmhF/qwI+OpFcyJtFpvjgc/FzyfleYLtFYbu4aSoPi5tW8KjAfoEj3XAglyXt1otMKoO5AnMcmDPwtwWLFZYLLPLgAXWjBf+wQvX3mey0UeQyx/3cTighjMJPVqq+NUOyEqgXuQv34bDU6HDgdbk6tpRrCtpYG0T+TuE7GFMd4JDCOZku8fSsiH8GvKiwagLddCq8d6XqgxPREo9W/jpuQvt8oRM3onk7roluA7bbsL3QgjV2iIT6YLnCGZb79wpgefxPVh9iBO614EOZ3H8dkgLwS6QXEd5nw4rVqrszpWmAepGvAP+Y6X4LiA7gqlrVP3ktJNMUrLHWi9wM3Isx1eE80wCXZzq0vV7klcDvSe//e5MPbphIfdQGkQXADxQuT7ePDKC4yes34UZMb1LYuAp2F3uWmfUigSCstuBc3CoqrwDOIPO/f0cV3r9S9ZFMdrpDpLoPvgB8gBT2MQXujKh+OpNaAOpFvgRkvN8CpFPgqmwnvck1BWmsdSKvFfdIjcmUMzJfqlX9bKY7TWfZSuB/2uEDE0l71yBypcKPyW20t+LOPv8PN4XfxiBsWqrakUMNec0Okep+eLkD54pruK8mQ+dKBR7sgw+erXosE/0NUCeyWtx84Rcm0XxHB6zOdMrGBpHPqVsExODSJXBlMZlrwRlrvcjLcUubVXqtJY+JARfUqv41k502iATVNZqzkmgeFfhARPW/0x0vninpi+oepch2YEfzEBP9iw3/V2jLuF4T/3m9zIFLBS7DTaIfmkCXhx24OeOFF9ykIW8D/pUxthQUXrtS9alMDl0n8vcC385kn0XCcRsuyFklryxTUMb6kshcv1tlw2TPGZ+GCliT6YLpDSK16v4MxtpvaxW4fiIZlOJ7ffcC16fbxzhsE/iDwu8V/rRSdWeWxilZ1ouUh+FCgcvUNdozSf0BKSbw2Qjclenl9o0ikwPwVdxEIsN13Ver+pZMjlcncp0F60r49MJ47OqH8zK9SuEFBWOs8Rvtc7hLTobkuKtW9ZOZ7rRe5MO4AUQjsd0Hr5/gfmol8EgG91MdgXqF5xT+YMHvM52H2DA+DSKzcBN4XAdcQgo5cON1eN8eUT2eaV31IpcA/81gtqNWhRWZDAKMl6z8Dfkfxe4pCn/uhNdkq2JSrigYY60X+T5uAgBD8vT7YNVETG5ERKx69yZx6bDvPCvw5onc/DaJVPjcvidai7Ne3KxRTwN/zMYN2ZA+G0Um++H1AtcCryO587U7FF6XjdWFF0TKqt19zzsEbp/IFsZw4uk1/wxMyVSfRc7DtbAWVcdrIelSEMZaJ/I+cY/VGFInKxlj4skZXj/wWt2kBfdPJNdv/GjEo8Ab0nj7PoWnrbiZmhlp4fCCSNlkuMJxTfYNjG1AWc3c0yBSG4HGTN3U4/mM/4x7XMmQJAJfi6h+zGsd6ZL3xhrP//sMJgI4bQSuiag+4bWO8agT+a64SR+SoQ14WuG3Pnh6her2bGoz5Ib4ls/rgbfj1skdabm4S+CGiOqvc6suNeIPij/D/XcYUkTgXRHVu73WkQ55baxbRapseMnUzZwYApsjcFY+L63EM2j9cIwmDm7Q1JPAkw3w51IqQ1WKbBOZFoOb1Y3gffmwb0fj5vq4F9qSoUHkXxUKdtaVB5yw4NwVqnVeC0mVvDbWBpEfqBuxZ5ggAm+JqN7ntY6R2Cyy2IKNnJqP+AhxIw3AU6erNudenSEf2Cyy3AdvU3grg2UAexWuXKn6rIfSRqROZK3AhLKMGQDYIvDyiGqX10JSIW+NtV7kDbgl4AyZYfsxiFysGvNaSAJuINRzwKuGfefmWniw2DMaGVLE/bx8A3h//EqHBZesUH3RS1lDaRRZ5rirK9VeaykSMn70KdvkZTrADSLTcRPrGzLHsunZOxOaNnWupuGmChAxpmo4BXc742VDrlQ78KtNInmxXbRHJOzAQxhTzSS3NIgkG3uRF+SlsQbhW+RXkvWiQOCjXmsYykMiPhkltZvA2hzLMRQAW0QWcep+6wwfPPqCiOelA7vhv3ATYRgyiMJ/Noqc47WOZMk7Y60XuQm4wWsdxYjCmjqRi73WMUCtW0B9xUjfUzijUWRljiUZ8hwH3szI2ZvOnARfzLWeocTvXe/1UkMRE3LggU0iFV4LSYa8MtYdItWMntHHkAEEPuy1hgHi0Z6jYufh0rXBW5yxPxMfjucSzzmbROZhcgBnm2UWfMVrEcmQV8ba7z5xzvZaR5Fz1VaROV6L2CYyjVMzNyUgcGOO5BgKgDqR+TJGStN4Dt5/z6EkFxHxuTEhJrNSlhG4PZ9W3UYjb4y1QeQshdu91lEC+G14h9ci+t1D8+PVxVzeIBLJhR5D/iPubHW8JP6vrBN5bS70DFAH/w83LaMh+1gCP4znE89b8sNYRQR3GSXpAsSG9FF4T/z/3DMEkjVMs99uAECS/CxY8L5saxmgTmRFoSxPFhGLFf7FaxFjkRfGWge3KpzvtY4SYnH9xJPcTwiBM5JpN86emqFE2CQyT+G8ZNoqvD5XMxofxOJlFA255e8bRF7jtYjR8NxYN4tMEbjLax2lRrJP/1kkqZq6Ais3i5gE5iWONXo08EgEnBw9OK5Q3V4LFwm8T6A9F2MaABCFH24VGZ6tLS/w3Fh98Elgmtc6SpDrEfHs5+9ANNm2lvcPAQaPkdRXLhZnRchIqGpE9Xs+iIhbncmQGxbF4AteixgJT421QWSBwge91FCqKMyt93D5XeBACs3NcnAJE49iT3UGmvOZzBmqhyKq1+F+XltyPX6J8sHNIqu8FjEcT41V4UtA2EsNJUon8FnbTXzvCQLrU2i+eovI6VkTY8hrbHcZONV7lWfGVqv6cMzNvvS0VxpKCL/AN70OxhyOZ8ZaL3ImbqUKQ+6IAt+yYWmt6pdWq3Z7JcSGX6bSPmaWg0uWNAPYPA0oOlP1YC28VuHjQL+XWoodgVfX5ZmXeFbdpl7kV5izX7lCgYct+FQ+FQRvEHlW4aIkm2+sVT07q4IMeUejyGzH3TZIZRKwrRaW50sRh0aRcxTu0yQj4Q1pcaQXlq9RzYsAMk9mrA0il2JMNVdsF7isVvWGfDJVAIV/wi1gngxnNYosy6YeQ/7hwHWkfp/6fL6YKsAK1Rd9buGAR7zWUsTMKvM4V/RQcm+sIqLmeE0uiArcWQGrI6q/81rMSNSq/gn4z2TbqwliKjlSPRYm8GCt6v3Z0pMuZ6h21sL1Ap8SsL3WU4wovD++xeg5OTfWOriKxHqKhszzvAXnRFQ/vUi112sxY3HM3YP6VTJtTbKI0qJBZBYj1+odjd8B78mSnInjHsv5isLVwHGv5RQhfvKkiEvOjVXgM7kes4ToA+6ohQtXqNZ5LSYZLlaNVcB1yZz/EzinTmRJLnQZvMeBa+OJ9cdF4MchuCqi2pVtXROlVvVJ251cbPJaSxHymgYRz7cZc2qs9SJXMEZ1CsOE2CJwXq3qv6Oa7L5lXrBItTfiLpN9knESR6SRKMBQoCS5DNykcFNE9e1LVfuyLipDrFbdHYILBZ7yWkuxoXCXl8lvIPcz1s/meLxS4fu9sCai6tm51Amj6kRU7xI4G3dJbzSMsZYAm0RmCLx6jCZtwGcFlqxUfTBXujLJUtWOHrha4Udeaykyzqz3+PhNzo7bNIhcqvDbnAxWOrQB76lVfdhrIZlms8hFFnwCuILEB0C1Yclq1d0eSTPkgAaR2xS+O/y6wosC37XhPi/PYWeaBpHPKnye5PMhG8ZmbwUs9yrGJGfGWify3DhPoIYUENhqwRuXq27LVJ8NIguAaxQuEKhVmAuU4xr4LuBpH/zPctU9mRpzPBpFFtrwFnHrt54H+BU+vlL1q7nSYMg99SK/BS4VsB34q8BjFjySyyNjm0XWWPAW3ACqBUAQN9nDXoE64I9++Nnpqs2ZGK9e5B3ADzDlMzOCwEcjqv/mydi5MNb47OPZrA9UOvw6Cjefpdo20Y42i0yx4GbcP69k/CfmmMC/B+Ezud7TWi8yKeTebGfVqn47l2MbckeDSFDhCwp/7IM/5vrQfzwpxXeAa5JoHgOeFngQeGiiwVN1ItcJ3I9r4oaJcdyBpatUW3M9cE6MtUHk5/EQc8PE+XoDfPwG1QmdhdskMsMHHwZuJ42E5Qq/7YNr1qiemIgOgyGfaBBZqm6O3wVpvP24wjf88I3lqmnnKm4QuRJ4WKEs3T4MJ7mrVvWTuR4068ZaJ7JCoB6zdzBRogK3RVQnFOiwUWRywD3y9D7cZd60Ebg3ovq2ifRhcLl5UfBsx5JbUKdLLTpR6bKQVhy7y/FJJ450OY6vw3J625hE17o6NflnM8xWkaqYWxxiohm+ugS+0wN3pjvbbhB5jcLjQE4KthcxnT6omciDTjpk3VjrRb4H/F1WBylyBHocWLtS9efpdyJWHbxL4MvAjExpU7hupeqEalBes1yqQr3+lZbIaseRP6zb29eQKX2Fwo2LA0+AvCHFt/WCtCLaitID9CrSaqGtCq2IuNccbbWEVsVqRewehV7HsloDff5WS0703LePNs2jFIBeUSfyXYHbMthlE/DpWvhhOkfg6kVeKfALhUkZ1FRyCHw5ovpPOR0zm79PG0Smh2CvWdJIH4F24A0R1T+k20eDyFkK/42brzTTbGmAlckuTd+8oGKO47fXoHZERGpVWIOynMHI3z1RK3ruIzu0KQta85KbFoVWqKV1eFdtKoo7y2pVt6RgF0gXaAfQhtIllnQ66nSBtFsqHY5ld+JIFz7pcqK+VivY20kvXev2a49H/4YJsUXkdNtdWctG4NAG4LZa1b+m+sZ6kVcCTwIVGVdVOnQI1ERUc5btKqvGWifyeYHPZW2A4ueowJUR1Q3pvPkhEV8EPgp8AQhlVtogcY2/Hnrtunky1R/2n4ktqyxhlQNnCkRIbvn5T52+6KW/3F44B/4nwo01wR8i3Oq1jgwRwzXnNqBLlU5EugRtF+hQcZe5UadTRdpExF32VrvT9kmnJVabZfd1dfXR+cTB3O3fN4j8h8I/ZHGIGPBvIfhcqkF/8aOKP8fUrp4IX6xVzZkXZc1Y94iEu2EPMDMrAxQ/+y24NN3jBVtETo/B/4p7RCVr2AIHQvKr/50duE9gtcJqcFaBzJlIvwI/fmBX/9szpTNfcWfw0d3Eo0DLwwFWL52N7TglTs5jAAAgAElEQVTEYg62o0RjtvvadnAcJWY7xGwb245/7TjYtts+5rhtigQHd8WmHeiK/3FNW+lE6BKkU9XpFKTNsVyTxrK7QNrBasfu66KCrnV1o0frPivinw6HgWnZ/gcJbAbekerDcoPINQo/xRzFSQuB9n5YlImTFEmNly1jrRd5D/D9rHRe/DQpXLxStTGdN9eJXGvBjzK9N9PhF44GoSkgHA0KTUGhOSA4aYalWSKEwwHKwkFCAT+Hj7UnVvsS/dSDO6NfyYz6/OTGxaGvgn504HWkZgZzp0/8x+Y4SjTmELVtHFUcxyEaGzBr13yjcYOOxWxsR7EdiMVsYrZN1HZNPWbbbjXf4qAXpFXQHhV6UVoVaZ0cc3xLe/RKn0KZA2Fb8SsEFMIOhB0l7EDAcQ9RV9o60UjMPoVPrFRNurITQIPI9cADyeZPNiQi8LmIak5Ky2XHWEWk3n0yq81850VPiwOXrFLdnOob4+f//g34QBrjdgrUKZxvC7QEhCNB4VhQaAoIh0JC9wR+nYMBP+FQgLJQgPKyIOFwkLJQAEsGb1EtrV3sPphw1l5V5eZ1u/sKMmXdeLx1mVRH7cA+4g9AwYCfC89chGXlVwD9gEnbjoOjrtmmYtKOKraj9EVjRWPS/rgJC9oTcigL264JB9Q15bAzvkkr/PxEub7jivbk9/7qRd4PfCuL/7RipjUEi5aqdmR7oKwYq0kIkR4C7TZcukp1farvjR9qf5QUixx0+oT9YTny+8nW/ccDMrPS1mva/VKR7qfCZ1mEg37C4QDl4RBlYddI/b7kXPnAkVaONCecUOgR4aIHdvanHPiR79xYE/gEIidrEy+dP5Wa2ad5KSmrKGDHbKK2uoYcX8YeMO0Bo445Gjdl97Vtx1878Vl0vF2xINCpoh2i0um4QWRtiHai4gaSiXTiOK2IdKF0Xd7mXDuzz7lmRr9SaSq7pso/1qr+S7YHyYqx1ovcD9yU8Y6Lm27ginjx75SIR/0+AcwfrU2fBUeDwrGAOws9HHSXc/snEIcaDPgpCwepKAtSFgq6y7rBwMROLCvs2H+Uto6hwaV6KOYLnPvw9hMHJtBzXnHVMglV2cHdoLMB/JbFhWctwu83q3zJ4pqtDjFgdx96YK/Z3ZdW7CF71LG4SbsG7pzcpy5E3nE4xsLeIlkCyBECB4HFEc3uOfCMb4THM/pcl+l+ixzHgreuSM9Ur1G4l/hBckegOeDufR4LCoeCQnMQ2vyS9iqc32cRDgUpCwcIBwNUlAcpDwexrCycDhFYPG86jbuO0NM78NmXOX4n9vgb58qFuYwUzSaVduCtA6YKMHfGJGOqKeL3+zJ2A4vFTdm2nSEmPGC8NrbtEHU0bt5DAseGm3qOTFqhbV6fbiHLwYnJEBVorLDYWGVxUaud12Yfz39+E3BPNsfJuLH64VY1eS5TQuDjK1QfS/V9vw/K7d1h+a/DQbGa43uhh0NCLM0Zo4gQDg3shQYpLwtRFgoQCuY2ENGyLE5fOJPGXYfoj8bXupRzykL+e0TkhkJPZiAisrYm8JEhr1kwa7KXkkoev8/C78vMg6LjuMFitgNR2z65J+1ed6O8B/akB9r2x9yZtBPfx47aDv1Rm9E+6pbyS1v5kA9eAJZkRHgKKLA/LLxUadFQYdEX/6/rnObjtoMx/Pn9G3oHWTbWzC4Fi1gNsEOhJnOdFjcK31up+r6x2qxdKUGnL7jMb+saFYmoUhtUvSgqqef4HWCkYKLyUACR/Amc6e7tZ+uuwwnHR0Tkiw/s7Cvos9E31oTehAxmq5ozrZraxeZUmuFUBvaeDzV3sOPAkKx8Irc8uLPv/gaRWoU/k6PUh50+YVOlsLHKoiUw8r3iojaHi1rze/PXgstXqGatjGlGpyINcIUx1ZT4TfOwCN6RMhOJBs7woT4FUDfUP5qk/w3MQsvDwZPBRGXhIIECWHasCAepmTudXfubTi5jq+pnbloS2vbAzr6feCpuAij6sYEfnwALZ0/xUo4hj/FZFr6gRXt3QlnRmD/W/2uAiGp9g8i7FNaRpXzsMYEtFRYbKy12l429pSRAuZ3f01UABz5CFuuDZ3TGWi/yGMmVWip5eix23TPHf2tTQBYqrMH9cyYTePIcCCYqCw/MREMTDybKAw41tXGoKeFcd68olzywu//PXmlKl5sXBy50kN8PvJ4+uYKzTp9QLg1DkeM4yrMbdmEP7N8Kzzy4s/81Q9vUu9Hln8jkuIdD7lJvXYXFiSSewwW4osXmFR0FEQymAqsiqvXZ6DxjM9Y6kfkWvD7/n1VyiyPQ7otH4oaEYwFoCoo2B6SGNI8k5TSYKA+YPWMyvX1Rjrd3D1wKq8ija5eUn7tu54l9XmpLFRvr40Of+ReZ2aphHFo6TgyaqsvPhrdpgH+qhXMULp/IWJ0+aIgHIh0NpvZE/prjBWOq4D4H3AG8OyudZ2rGWifyTwL/nJHOCpReC5riR1kyEkyEEA6fGkwUDPoLfRKaMo6jbN1zhO4Tg2lWVakP+qMX3Ls9+we+M8H1NaHlPtF64sn2J1WEeUXtqCekDAYAGvc0caBp8Gy3LdbpP93Ze0qq0y0iU234G7Aolf5jAtvKLV6qtNhRPvZSb1k4RH80hm0n7qFeftzm/PaCMdUB+gIw73TV5vGbpkbGZqwCRZ/XdYCBIy1DMxMdDgldE9i29PksykLumdBwKEBZOEBFWSivgom8xLKEpQtm0LhzMFJYhNp+J/jAWpE3rJtg4fdc4BP9R4ZUsFk0p3iTQRgygwLNbSdXahDYMpKpAixXbdkscosFvyeJe3tTUNhcabGhcuylXr/fYlJVBZOqKzje1kVPb2INgde0FqSpAoSicCvwr5nuOCPG2ihyHnB6JvrKV44EhT9OdpdHjgfSPxNqWRZlITeAqDzszkTLygJJZyYqZQJ+H0sXzGTL7iM48cw7onql1AS/AnzcW3Vjs3Z++VwJcPPA64pwgBmTTSUww9h0dffR2x8bckVOWQYeyirVF+pEPidw50jf77WgvsLixWqLw2Ms9YoIlRVhJlVVUFERQhCOHmujrT2xlsElrTavaitIUx3gNkS+lk693LHIiLFqCcxWZ0SVXktGDTE/BYFQPJioPBw8+Xco4C/4YCIvKS8LUjNvGjv3N53MO6vox25aEmx8YGf/j7xVNzoSiH2YIee7F84+zXwODOPS1JZoZK9ui7WP0vQkK+GuergMuATcX5PdZcKLVRZbyy3sMT534VCQ6qpyJlWV4xtyrvfosTZaRzDVCwvbVAEWN8AVEfhVJjud8B7rDpFQHxwCin5dq8eCH8zx0zrMXH0+66R5loUC8a8DRRtMlA8cOdbGgaMJkcL9oJc/uCv6+9He4xWFkmzfkH/8X/1+OuJHbcoc+Mi+aEtQWX2G6qGx3veSyNzjAanbXGVN3lhpjVlAw+/3UVVZxuTqCkLBwCnfH8lUL261eXXhm+oAT9SqZvQ0y4RnrH3wekrAVMH9YN/YZPOj2f6TmUYAZk6tZs4Mkzknl8yaPpmevhgtg0/0QZCHb1oWPu+B7b07vdQ2nKjjv50hJfwWzpxkTNUwLn39MTqHnF9desLBUqbacDciV4yUlunaGpkckMBaqQm8HRj1piQiVJSHmVRVTmVlGBll+aSppf0UU72ouEwVgasbRRauUN2bqT4zMaUq+mXgoczoV950zE74GB5uauN4e1GksC0oFs2dSlVFeOiladjOz6+tkbx5yrlqmYRQ64MDr/2WxdyZGS2TayhSmtu7E2I5Tj/hvlK4vB4+NHD9CyLWjUsCl920OHhPUAKHBL4HvHKkPkNBP9OnTmLpolnMmz2VqsqyUU31WEs7x1s7E65d1OZwURGZKoCCT+G9mexzQkvBG0SmB91qAaeuHxQ5z03x8dzkwecSy7JYsXgWZWGTJjmXxGI2jbsO0zckwEOR3xxb2H/1M89obIy35oS1i4N/F7/RAe651WXzp3kpyVAgbNx2iGPxiGBL4aP7ooQHPa3vt5N9a58/zXeOqL5TYeFo/fh8FlWVZUypriQUSu5Wfaylg5bWxFNsF7Q7XHY874Pv0+WIwMJMVb2Z0Iw15FYJKDlTBXh1q02ke/BT7jgO2/c1EbOL9oOXl/j9PpYtnJkQaCHoa2fsDXzdQ1mAO5OQITMLEWH+zLyZTBvyGMdRjg8pnbiw1y2Q3mfBpkqLe2f5Qy9MsR5H9XMjmqpARVmYubOmsqxmNrOmT5mQqZ5f3KYKMAt4Y6Y6m5CxagnXXBXgjc02M/oHZ/z9/TF27mtG0z6MY0iHcCjAkvnThy9pffCmJcH3e6UJoHFx8E3AioHXc6ZWEc5xpSBDYXK8ozuhmPv0qPKLaT6+viDAY9N97BolZ+/gUu9s5s+dRlVlGamEnzePYqqXF7epDvDOTHWUtrFuEplHHtQC9JKgAzcdtSkf8pnr7O7hwJFW70SVKNWVZcwblh5Qlf+6cYn/Ko8koaofHfhagAUmfaEhSY61JcZs/KXaYn2VNWLxDZ9lMXlSBQvmTadmwSymTqlK61z8seMdNA8z1fNKx1RRuKJRZPb4LccnbWP1wfUTeX+xMDmmvPlYDGvI4+PR5g6OtXaN/iZDVpg5tZrppyVU0vOh1v3XLwvV5lrL2prARcD5A6+nTamgsszsvxvGxnGUo8e7OHRsnCyd8aXeOTNPY2l8qbc8HEp73ObjHbQcTxzz3A6H15aIqcbxO/C2THSUtjEKrM2EgGKgpkdPearbd6glIa+tITcsmH0aVRVlQy9V+2z92dplMj2XOkSsjw19bZLtG8bjQFM7z27YxaYdh3FGCSoNBf3MmDa41FtdVT7htKfNxztoHsFUr2gpKVMd4B2Z6CStqOA6kfkCezG5YxL42TQfG6oGn1UCfh8rlswhGDDpCnNJzLbZsvMIvf3Rk9cU/kB59LJ1dZmJ+huLmxaFVqildcQfXKsrw5wbMcn2DaNzpKWTzbuOMNLGqeWzmFRRTnV1ecZPHYxkqq+Im2qp3twFzouo/t9E+khrxmrBDRhTPYUrW2zKHLYNvI7GbHbubxr16dOQHfw+H0sXzhgWKcyF0h34bi7GVysx2f7i2SWRP8WQJsfauqnbdTTRVIcu9S6czcwZkzNuqi2tnaeY6jmdpW2qcd450Q7SMlY1y8Aj4lP+bBO9GNGDA9e6T/Sx92DGqxIZxiEcCrB0wYzEZTLhXWuXBO7I5rhvXlY+jyHR8hXhANNNsn3DKLR29rBpx+GEJEpVFWGWLpxzcqk3G1m6Wto6ONaSmHb4ZR0OVzeXvKkC3PyCSNn4zUYnZWNtFFkIvGIigxYxH/nxHj2sItcAJw+htbR1c7S5IEqGFhVVFWEWzJmacE1Uvrp2cThj59WG44/F7mBosv05Jtm+YWQ6T/Tx0rbDOM6gqZaXh5gzayp+f/biQo+3dXJs2P3o7E6HK81MFQCFSVXwhon0kfJPT+HNmFvFKSg8tlL1eYB1O/rXK9w29PsHjh6nvbNn5Dcbssb0KZXMnFo99JIlOPfesji0OtNjvWWhTEF4z8DrUMDP7MQoZYMBgBO9UV7ceojokIQy4VCQebOmZrUG8/G2TpqaE2eqZ3U6vN7MVIdz8/hNRicdY52QkxcpasEXhl5Yt6v/xyL858kGCrsPNCek3jPkhnmzTmNSVfnQS1UO+sQti2VmJseJ+vzvB0466YJZk02yfcMp9PbHeHHrAfqjg/eCYMDPvDlTs1oRq7Wta0RTfYMx1VMQeN16kbSTeqf0U9wsMgV4VbqDFSsCv4yobhx+3dkV/QjIrwdex2yb7XuPJmRUMWQfEVg8f1pC8IfCwpgGHrlqmaR/+G8IVy2TkGDdPvDa77OYO6N6rLcYSpD+mM2LWw/S0zdoqn6/j/lzp6eV1CFZjrd1cbQ5ocwiItz9hmb7SWOqIxIOw5vSfXNKxuqDq8hQcfRiQuErI11fp2prtP8twI6Ba719UXYfaDZJD3OMz7JYtmAGAf/gzUuEC6rswD2SgbW36ljgnaAns7bMmzGJQBZvlIbCI2Y7bNhykO6ewRNffp+PBXOmJ3wuM01bezdNw0wV4QFnV/Q9Ch8TKMkDq0lwY7pvTMlYFa5Od6Ai5tla1T+N9s11+/W4OPJG4GS0QFvHCQ43tY32FkOWCAb9LFkwHSvRR9eurfF/ciL9fkHEQvjIwGtLhAUzTUIIwyCOo2zcdoiOIUljLMti/pxpBLOYP7qto5sjxxJTrAo82LQg+rZ1qvYq1c0K92ZNQGFz2TaRtEpRJW2s60UCwJXpDFLMjDZbHcoDe/oaUXkHQ06qHW5qo9XUcM05leVhFg6LFAb555tqQmkXlKivCV6nsGzg9expVYSCZrZqcFFVNu04TOuQ4EXLEubPnpp0xZl0aO/o5kjTKXnL1x1dGH3r0JKKCl8CTPDHqQRibrBuyiRtrGF3b9XUvEpk40rV3yTT8MHdfY/V9OojA68V2H2wmZ6+6BjvMmSDqVMqmTU9IS5BVPR/1i4OpnWMTNCPDH4NC2aZ2arBRYGGPU0n66q6CHNnTqWsLCPb+yPS1tHN4WOnmOpDTQujbxlep3il6k7MrHVE0q3glspSsIkGHobCN5NuLGK99XBsxSk1XPceNTVcPWDejClMrk6IFC4T5LF4goekubkmcDFDqjxNN8n2DUPYtu9YYkJ9gTkzT6OiIpy1MdsHln8TAjn0p00Lo7cMN9UBLPiy2WsdkVenU/EmFWN9faqdFzktnXBfso3r4HqByEg1XHftNzVcc47A4nnTKU+YNehsvxN7/O2zJOlUSbZlfXzoa5Ns3zDAzgMt7DuSGEsxa9oUqqsmlNRnTNo74zPVIbeTOX3OzsmnxUY1VYAVqttJ4X5WQlh2GtHBSRnrJpEzGLKHZADgh+erJp3xQeAOGLmGa0dXDwcPm2CmXGNZwrIFMxKLJCjn9Jb57/mCyLi/G2uXhFaJ6usGXk+uLGNSZfZumobCYf/RNnYdOp5wbcbUSUyelL30lu0dJzjclGiqy7sdbj1sz7l9PeM+8cXgTjNrPRWBa1J9T1LG6ofXpi6neBGwLfh2su03i5wPnDvwenJMuW5YDdcjLe00mxquOScQ8LFk4cyERA4icl1DTfDz473XUv0YQ7KQLZpjZqsGONTcyda9xxKuTZ1czWlTspeFq6Ozh8PHjieY6rITynXHbCylzAcfHq+P1apbHXg4ayILl0tSTRaRlLEqXJaenuJE4ecrVPcm217gQ8OvLe5RLm1NfDjce6iF7h5TwzXXVISD1MybPiz7jH76xsWht472njcvK5+nQ865VZQFmZ7F2YihMDjW2k3DrqMJGzuTqsuZPi17yUI6u3o4fDTRVJf2KDc0xfAPXnv/RpFxg08t+HpWRBY2wbCbwyFpxjXWZ0X8wMXpKipGBH6UbNt47drrRvre+e0OZ3cOBjOpKjv3HaM/alZjcs2U6nJmz0i47wjo99cuCpw/Unu/E/sIQ5LtL5o9xWTQLnGOd5xg087DCfESVZVhZk/PXtnAzq4eDh05njDm0h5l7dEEUwWo9sPtw98/nHgd0uczLrTASXU5eFxjneZWsjG52QZp6oFfJttY4AOMka3qyhabuX1DgpmiMXaZGq6eMHvGZKYmzjrDYskT1y8sWzz04lsWyhR0SLL9oI9ZU02y/VKmvbuXjcMq1bj1VKdm7YGrI3lTBUDg/+2Q8VN4Cvx7RoUWAQpX7xFJOpR7XGO1zDJwAgL3r1FN6vBpvKbfe8dq41dYezRGlT3opF0n+th7sGWCSg2pIsCiedOoKE+490zz+e2frV0yuMcS8/lvByoHXi+YOWV4NidDCdHV08/GrYcScoCHw0Hmzjkta5VqOrt7ODzMVBePYapxZvTCDeP1XQ+PCuzOjNKiofJECiu34xqr2V89hf9NtuEkuBbGj8arsuGKFuenwMkN1pa2LppaTA3XXCMiLD01UjgCwfvXivjeVSNhhiXbnzcj7SIYhgKntz/Ghq0H6Y8Nbt+EggHmz56GNX5geVp0dvdw8HCiqU7vZ+9NY5sq4M5ax+v/BlXbYbAyl8HFSeHYzZg/+QaRSoYcfjewKaK6IdnGDrwrmXYC9qpu5+MCfzf0+v7DrXR0mxquuSbg97F04cyEEl6ieqXUBO/qtgLvAp01cH3+jMn4fdkr9WXIX/qjMV7ccoDeIaUgA34/8+dMw5elz0RnVy8HDx9nWPaHpy5riV4cUJK5Wby8TuSC8RrF3AmEybk6BIGrk12CGPOn78BFQPaSWRYeP0m2YaPIQoHXJNn8ieWqex7Y1X8P8I2Bi4qya5+p4eoF5eEgNfOmDdsf04+K6pcHXlkizJ9psnyWIjHb4cVth+juHdwV8vstFsydjj9LlWq6TvRw6GgLw0z196ET0Wvf1KN7HPhBMv1YScxaz1JtA9alp7RombcZVibTcExjFbMMnIADP02h7dtJ/jjTSTNtWhi9A+GZgdcx22bHviYcU8M150ypLmfuKVVqBo8sVJaH6OzppeNEH739MRNwViLYjsOGrYfo7B48GufzWcyfM4NAIDum2t3tzlR1yGdM4Q9aHr36niPaDeDAvwL9o/Ux5H3XvSQyN4l235+I5mJE4HXjtwLRMW4GdSLrBc7JmKrCZkOtanL/FyJS79ZgXTxuW6ivhVVDf2NuOUOm2dHAX4CagWtTqstZvGCGOdGRI/qjNq0d3bS2n6DrRG/S77MsIeD3EfL7CAYDBP1CMBgg5Pe514M+ggE/AZ+PYNBnfp4FhqPKxu2HaRmSVN+yhPlzplEWzk5S/a4TvRw83MKwe/UftTx65bo6TcgqUy/y34wTMAmg8OmVqneO165epA6oTVVzEfO7WtVLx2s0qrFuFamKwXFMYXMg+Q8iQKPIqx14Lsl+379S9TvDr9+yOLTaRp8HTp7/mDtzMrOnm6XHbBGNm+nx9hN09fQOW3HLPJYlBP0+QgE/wUDceONfD/7xE/BbBP1+TOCxt6jC5p2HOXp80MtEhHmzp1JRnp2k+t0nejlwqqn+ScujrxtuqgCbRZZb0MD4h3x21cLS4R0Pp07kHwT+I3XlRUu/wNSInvp/P5RRjbVR5DIHnsqKtALEhuWrVbcm07ZO5L8EPjheO4GefpgT3884hbWLQ9cLuo6BXxKBpfNnMrna5KPNFP3RGG0dJ3JmpmkjEPT7CfotggE/oYCPQMBH0O8jGPQTiptvMOgn6PclpGg0TBwFGnc3cfBY++BFgbkzp1KVpfzQI5mqKs/3haKve3yLdo72vgaRnytcPV7/ApdGVH83VpsGkdMUDgLZK8dTYAhcE1F9Yqw2o85GbXiV+dV0UahL1lQRsSy4Lpn7swOPjGaqAOt29f30xsWhO0E/PSBk94FjLF8ym7IsFkgudmK2TXtnD8fbT9DR2ZNUZSERC9XBfe6ZU6uZPqUS23boi8aIxmxitkN/NEZ/1Ma2bfqiNradob1xJd437uPYOIy3JO33W4SCfkJ+16TNmvTY7NjfnGiqwKzpU/LOVOP8O0kYqwO3AmMaa0T1eIPIr9Q9OmhweR2QnrFacEG+PrznGoFfJNu2Ds4TGDcwAMBKIjXiut39n11b418Ocj24gRM79h5lxZLZ+H3ZCZQoRmIxm/au1M20siJEdVU5FeUhtu08dPJ7PkuoTqKmpuMoMdsh5thEozb9UZtoLP4nGiNqK9FojP6YTTQWI1PxT46j9PXH3IjyE+Pnn/b7fYQDPvw+dx84FPS7XwfcrweWo8Mhf8klw9h9+Dh7DicWDZ8xbRKTq7OTG7q7Z8Tl3xeC/uiV68Y3VSKqT9eLbAJWj9XOgus2i0xZpXpKRfRh3I8x1qGMG8A0orE+K+Kfbs6vnkTh18m2FXhzkk33RRiM/h11bFW9ZrncGu4PLCce6t0Xr+G6bNEMxEw1RiUdM7Usi6qqMqorw5SVhUb9/03W/yxLCFo+gvggidiWmG3TH7OJxRyiUZu+aAzbGfjaJma7BtzXb4+3PZYSsZhNVyy5HNWWJYSDfoJ+v2vIJwOyrFMCtELBwn74O3Ssg537E7OgTTutmtMmZyeFZU9P30imut5vR6++d5cmnTFG4NsK3x2rjUKZBTczTqWudvh5NXRgUtsCoFDTKLIsXsN2REY01qlwJmCSn7p0WskmpXYPDydrrA8nrC2OweNbtHPtorI3imX/BZgG8RquR9qYN8uUKhvKRMx0UlUZZaHQ6MuiwklHVSc76zl+nztrTMaEB2bD/bEY0eiQpeiYjR1zjTgaixGLz4ozpdhxlBO9UU4wfmbPgSXpgM/dGw4HffjjS9ShYCBhSToYtPLqQbGptYuGPYmVaiZPqmTaadnxl56ePvYfGmaqwov+WPTyn+wdd1Y5nJ/gHr8ZT+wtjGOs56v21Is8hnuE0AA4bnrD1IzVZ5aBh/K7iOr4m1rAZjjHgoXJtBV4JBUR6/b07F67OHCLIL8k/nM70txOWTjA1MmV47y7uJmwmSZ5TEKQk33nw+/HydlwwAfjbPU5qsRiSS5JR+2k/g+T4eSSNCS1NzzaknTAFzfgoPu9cNCf1YxXxztOsHnHkYSl+erKcmZNy05U/onePg4casEZ8qytsIH+6OU/2Z+yqRJR7aoTuV/gtnGaXtAgsiCium+sRgL3qzHWoVzCGOd8R9tjfWV2tBQeCk8m21bgiiSbHo6kUZpp3a7oUzcuDnwS5KsD1/YcbCEcClBRlp0zdPlKgpl29SS1LGpZFtVVYaqrytM7czhkxpqxzdAcYYm4x3eSXJJ2HKU/atMfi+UuQIvUl6STPTOcSoBWe1cvG7cfTkj4UVlRxpwsrQ71jGCqwEai0cvW7dfj6fZrwfd0fGMVx60r/NWxGjXBb6dDM/EVM8PYCflHNFY1+6snScVYSd5YH012GXg4D+6Kfu3GmuAKhFthsIbrisWzs5b1JVJFeGQAACAASURBVF9IiObNlZkOId9mrNnEsoRwyA1WGo9UlqT7Y7GM/eelEqBliRAInLokPTxAKxpzqNt1NOFhoSwcYu7M08hG6HRPr7v8Oyyz2sZof/SyRw6kb6oAEdUN9SIbgLPHaXoT4xjrxaqxepFfAO+YiKYiYvZmkeWrVLeM9M1Tfmu2iUwjyeXMEuDAKtVdyTTcKlIlMGJR7BFIOjXiSJQTvf0EgZW4tXLpj8bYub+J02tmFV3EptdmOpSh/7UmfeEgqSxJgzcBWo6mtiQ9QCgUYN6cqUgWzgX39PaPZKovxU01I3UjBe7VcYxV4Jw6kRUrVRvH6e5nGGM9ibiz1uSMtR/OKa5bc/poktmTAGw34X4yh0ubj8Ef0lcFP9qtvW9eJG/yW/6/gcyBeA3XQy3UzC38lZp0zbSqMsyk6sya6VASAmuMsaZNKgFaMdumP+oQjcWIxty/Y7HB2XHUdq/1R52M59MOBvwsmDMNn5X5vVzXVJsTNCts8geilz24KzOmGuc+4F8YJ4OewPXAl8Zp86S6pS1La99pdC5hlMjrU/6zLVhjbhkuFvw+hebJLgM/drHqhMvVPLxHD69dFLheLJ4h/kFvae2ioizIjCxFLWaTfDXTBCThsL4hB5w04SSeWTN5Zjjg97Fg7nR8GT4rrqq0tnfRfLxz+IPAZnzRy+7bqs2ZHC+ieqRe5LeMc/ZS3VqjYxprRLWrXuSZ8foqFQQuRkRGulmdYqzjLRuUEk4KM0uFy5Ns91j6ihJZtyf6wo01wdsQ7h64tv9QK2XBIFWV+Z+BzLYd2jpPpGSmPsuiMpdmmsDgjDVTUbOGzJHKmWFFTy5D79h3jJ6+waNDPp+P+XMyX/6ts7uHY83t9EcTn6tVaYj5opc9sl2PZXTAQR5gHDMUOHuTyLzVqgfG6etn4/VVQsyog+Ur4ZQl9JHWOEw1G5emlaOsnw+nUWQ2sDSJplErheXlZHhw9/9n773DJLmre+/Pqeo4OW1EYZV3Z0YLYpEwSIAkRLoywTKIHK4TNlww8OIcuNj4NRhjLr4YDBhMtKQV2bZElkDIGJCQ2J2Z3ZU272rTbJrdmelc5/5RPTOdu7qnu6u6pz7Ps6Dp/lXV2dnu+tY5vxOSnwP+aeFnRdlzeNqzM1wzGYtTZ2d5/MAJHt15iH2HTzJzfr6iqAZMg8GBHi6+cDWXX7qOtasHXRDV/D1WVX/DpJ0R7IziQ8fO5omqYRhcuH6YUKhxs0fiiSQHn5jmiaOnikQV0Iymbvnqbj3RsAsWYMJ/ANVuCGLAr1Y7l9jn8lmiZF5NnrA+KjKAs1FnHY/Ag04zJ9R5edLPqk1FqIcTF6fekTfDNe2tGa7LEdMNF63hskvWsXqkn4jL/ZHzmxf4Hms7oyi7Dhzn7Pn5xdcWJtVEwqGGXCOdznDk+Gn2HzrBfKx01rLCqa/s16MNuWAZNqqeEnjQwdIXV1uQrXct2xhhpVEuYTXvsSxk76/6j+I2P69h7Q0O132/HkOqcd99mr7tAnlFKBT8mWYfjGLxJHsPn+Qyl2a41hPmDZgGvb1dDPR1N9RjaBh+7lJHoMDeQyc5PTOf86rwpHVDdDWgHlwt5fTMLKdOny+sTQXs7YxM9qHXsFsFNh2FbwDPqbRG4Lm7RHqv0sr9iBV+IHBFQw1sX55Z6sU8j9Xy91cXUfhFDWtL/nILsapMklgO2fT824DFCcxnz81zbLrs8JyG0yjP1JOiSr7H2sg+vT6t5cCR0xw/na8d61YP0tO1zEk1CufOz7Pn4DGmT80UiWokHOSKi9cQjYRyD6naVL8RWLawViOcglscrGvafawN2ZiN9OaRdwcTX1gXCcLDTtZtE+k24SkOls5H4b+XaVZF7tyb/OWrLgu/QVW/TNa/euLEWaKRMAO9zRlvlc5YzNTlmXYz0NflWREthV/H2v4cOn6GIwUPm2tGBujv61rWeedjcY6fnCGRKO6fHAgYrF89xKrBXkTgiRN5HQobvjVUiqtV906JbFe4utI6A54PfK3SmhTcF7Idfz+6CUYQnk5BI6HCu9qm1tnjafZfqc7S3g24Fge1AAIPXq5afX7XMrlzT+Krr7w0/LegfwrYM1wPNXaG67LEtL+LULB9xDQX9e8jbc2xU+c4dCy/7e6qoT4Gl9FrO5lMM316hvOzsaL3DBFWjfSzblU/pmEsfnqsTO73RVoirLAYDq4orArPrXaea1SnJ0W2U2Us3UpB7X3WMsIqYgBXtdgmr+LIW83yNIfrWhY+Gd2X/IupSwJXg7wY7Bmuew6cYONl6+puXL5SxTSX/Kxg32NtJ06emWXvE/nPyoP9PQzXWfOdyVicPHOOs2fnSpZeDfR1ccG6IcLB4ofZ/GiH1TJhxR7O/edV1lzhsCn//eoLK1A6gWnxbrcTLgKWFw/pEBQeqWG5kzAwtFBY36NqvXSjvDacCP5EhDGAeDLF3kPTXHHxGpx2PfTFNJ+8PVYX7fCpjTPn5nn8YH6JaH9vF2tW1T6pxm7wMMfJ0+dKZt33dEW4aN0Q0Wj5zOJ0Th9iEWnJHivAGDw0CUeA9VWW3gxLtfFl+GlDjOoMri1sFLF457P8MPAiJkw6XSvOhDUeq02sl803dur5V10WuU3V+ikwANkZrifOcMGa8lM6crN5z8/GHO0lLojp4EA3wQYX1XuJPI+1SfNYfRrLudkYuw4cz/Mqe7ojrK3wHSjH7FycEyfPkEwVT98JBQNcsHaIwb6uijuPCvlJTdqaPVb7WqqI3I89g7USz6WKsFrwU39jZJHBbbBhM+xbeGFRWBU2umOT9xCYcrJuv0gEZ+HzbVtUq0+FbjB37ok/dvulwdsFuRcwAY5NzxCNhBju715cZ1nKzPkYJ8/OOhbTYMCkr6eLvv5uu/n6isMXVq8zF0uyc/9xrJyHoO5ohCetHa5poHo8keT4yRliJWpRTdNg7Ug/q4b7MB2EgtSy8j862ro9VgCFB6SKsCo8t1yrvgXGYe+kP0ZuEcNO/C0WVnxhXSBxDPY6+WXM2YkATuKdDy3TprrZujf13VdeEvxTRD6w8NqBJ04SMk2S6QxnZmY5Nxt3LKb9vd3093cTCDRvyLRXkZwbp++weptYIsXU3mN5YddoJMST1g3l/TtWIp3OMH1qhpnz8yXfHxnsZf2agWwvY2dkCsLHKtZcmaVNwYAHHHx01+2AyzdVagShqiryM4H/0UDz2pZsRc1XF37OFQU/FGyzq4Ym+Y72V7W2ZKiGc2JD+h/W7A88R0X+B9ge6q79xxwdGwwG6O/rpr832vDeqe1G/u3YV1avkkhl2LH3KKn00tc4FApywboRDAeTaiy1OH1mllNnzpd02vp6urhw3RDhOkrFCrdlpcUe6yhMTcIpYLjSuow9k7tihyUDfqa+sALFpaqBnDc2+rcKkBINlSsw6mSRUUOziUbw6ou611uBzBZEt6B6/SqCz1Rxnpgm2aHQ3V0RggF7ILT95C8r0lNdJG+P1T0zfMqTSmfYsfcI8Zxe2cGAyYXrRzCrZcQrnJud5/jJGTKZ4n3UaDjEheuH6Omqf8BFoceKtHCPFRb2WX8MvLTSMrGF9QtV1vzc1wybwuE1AYCdIsMKq9wxyVso7Kph7ZUOgkrxWA3JULVy+xWyCsu8TjCvVbhOVK8lkN33yH7qa00yUFWSyTTJZPF33hCDYNAgEAgQCJgEAgbBQIBg0BbgYMB0HGprN/I7Bfu3FK+RsSym9h1jPr6UzhDITqqpllQ3F4tzYnqGRLI4FSIYMFi3epCRgd5lt0QoyiRusccKIHY4uKKwUqYHbi4Z2N6Z3/S6WD8hsmZc9ThkhTUFG1awH5KH5GxAO1jrpF9mwxKXbh+XHpkPPBW4FuQ64DohuMF+13n7AtMQMnVuElpqkUhaFafnmKZpi69pEggECAYMAsEAwazwmgGjpuQRz5DzwOBPt/EWlqXs2HuMufmlBCN7Us1Ixe5eyWSaEydnmJ0vbvAghrBmpJ81w/2YRmP+vTOZfGG1jEzLym1ycDIO8+ptIt2bVcvuAY/D4SmYUehvoG1tS7ZC5NuQFVaBi121yENkHArrlEgIuMTB0roSl266SQLDh0NXBTK6RWELsEUIXgvUNHojYJoMdIcZ7I0y0t/FSH+USChIKp1hPpkmnkgxF08xF08SS6SJJ9PMxRPMx9N1t+3LZDLZUFr55wnDNAgFTMys8AYDJsFggEDAwDQDhAKm5xqm+Xus3kTVnlRzbi6++JphCBesHyZcpttYxspw8vR5zszMlvynHOrvZv3awayn27gPolX4QGu13mM9Ab9YZbdSrNRyKiB285vyYy7tsPIUDrzbFcIoBcJ6kavmeIgA7HeyLg2XmA4yggV+6eR8Ofui16N6w2qC14B21XL7FhEGuiOM9Hcx2BthoDdKX1e45G0hGDDpD5j0d5Wf5pFKZ5iNJ5mLpYglUsRTaWZjSeKJNPFUitl4qm59sTIW8YwFJXqrLvxdggED08yGmIMBAqax+N+hgIlRZxepepE8j9UXVk+g8PihE5w5VzCpZs0wXSVm9qoqp8/aiUnlGjxcsG4wr1F+Iyl6WDVbL6w3qqYnRX4O3FRpndjtWivOj1aYwBfWBRYTgBeEwRdWm9QEHHaSHh2Aq5zcWqXEsPTbL5G1IuFrEd2iyhZBn04gu8ft8H4tIvR2hRjsiTLYE2GwN8pgb7RhISuwxdc+f+kG/hlLs15uingyK7rJNLFkirmY7QUn08VJIE5QVbsQv0Qx/gIL4hsIBG0RzoaaQyET0wwQDBoY0hzx9XXVG+w/eoqTZ3KilQLrVw/R3V2cYHR+NsaJU2dJlfhMhUMB1q8ZZGCZzfirURgKxjJaLqwAAtu1irAazloWOqr5XyEsVmkuCOuFLhniNQ69QtWREqjDgfDb+nniPZcFb8CSLYawRYUtIsFRsAvFncpgNBRkoNcW0JG+KCN9XdWzHJuMaQg90SA90fLN/TOWRSyRYS6esEU3kWYunmQunrIFOJ4qvtk4ZEF8S3XCWcAwDYJmNrwcMheznAMLghx0vt+b57H6oWDXOXj0DEemZ/JeWzsySF/BJKd4PNvgIV6mwcOqflYN97Zk37/IS065I6xZT7PamooN+7NrJj22Y+MmvsdahoqNpwsoehixBE4GhWMh4UhYOBiWzLGwPCaKgWSdUQf342A2RDsy0MVwXzdDfREibdp31zQMeqJGRfGttt87F0/XHXq1MhaJjAWkKZGfAizt99p7vCYB08jf7y3RWcovt3GXoydnOJw/fo3Vw/0M5HQUS6UznCzT4EEQRoZ6Wbu6v+7BFPVQtMcairkirBZMOPhbb3pYJFgl+XJvw4xqf0YeEVl1jer0wt3aT16yOVLD2gvPm8KhiHAwIhwNCUfDQjr/8a1qRwXTNBjsXgjlVt4X7VSq7feqKolkhlgqVbTfOxezw9DxZKpuH3JhvzdeZb/Xymvxqpw5N08waBINBV2PHqwkps/Msv+JU3mvDQ/2MTTYC9j/nqfOnuf02dkyDR6iPGltfQ0elkumwJ7pi2hp56UFojCZqD5TNdxlt2wt690m4GAUMurgXrcSCNvh4OlAtt/tarcN8gjHy72R23RBlS2Ri4MvTNR4LzVE6CnYFx3qi2J0aN1noxARIuEAkXCgpv3euXiSWDJNPJFmNp4ktdz93gJ27FvqXiUiBEyDUDBANBwkEgkSCphEw0GCQZNIMOCo649PZU7PzLP74HTeQ1R/XxerhvsA5ezMPNOnz5Vs8NAVCbF+7RA9FRL2mk3Btkfsvvscd3lrKJernpsUOUSVaKVlh4PLCusW1dSkyBH87cQFNgEPBGL2L8S/s9vk9fm7/dLg80R4C8p1BMQetZTdF3Uiqr3RkC2eWQEd6Ilg+jfXpuBkvzeRsvd45xNp5hNJYokU8/EU8wnbC55P1B9yVlVS6QypdIa5Es3aAUxTCAYChIMm4VCQrnCIcDhAOGiHm4PBgP9FrMDMbIzHCibV9PZEWLdqiLlYnOPTMyRLNngwWb96kIGBbtd/vwV7rG7UsC6iMFGtIkRg3MGp9uMLKwAKlwEEFNa4bYxXUDha8NJ1qLzMybEiwnBflLWDPQz2Rhnui3b0CLV2JBy0RWygXPWeYu/rJpJZAbZFdz675xtL2BnP9ZLJKJlMKhtyjhe9L5BNqrLFNxIK0RUJEg7ZQhwKmjU1fO8kZucT7Nx3PK9cpTsaYWigj4NHppkv8TBjiLB6pI81I/2e6QaWySzZL7S4nWEBYnuiFXv9WnC5g/McUHhWwwxrby4CW1hrH0zYueSFgg2TmLMcYdtjOTkzz9nZBN2RIN2RAN2RMF2RIN2REN2RIF3h4AodsdYmCIsh53JkLCWeXPJ0bW83nf3ZFuC6S4yAVNoilU4SiwOU6AYkdr/mUCBAOBQgEgoQjYSIhAKEsg8ORgNLrrzAfDzJ1L5jeX12gwET0zQ48MSJooRAAYYGe1i7qr/hDR6WS+4sVstlYc16rBUxsh5YlfPsb4xF7Y/CBrCzgofcNcU7SOEea1rmav1OpjMZZuYyzMxBqe+NYRh0hU26I+GsAIfoiYbojgaJBoMVb+o+7mMakn1QKt9AwLIs5kuUGC3u98YSpJZRYpRKZUilyoecDUMwTYOgae/xhkP25yoaDhIO2h6wVzy4asQTaab2HiVd8LCSSmdIzRZn+/b2RHnSmoGyHZfcJpOfAeeqsBqwq9rGh5OyQoHjfvGZzUIXw4DAsP9LsRHIy9+3ulNfMmPBhzMqGwTrYkE2WMiGsKVXq3Bxqo57k2VZzMYsZmOlQ4oB08wKri26vsfbfhgOSoziqTSxeJpYIpUXeo5lPd94MlN3S0nLUizLFt/5eLJ4gdgPCAEzYIeZgwG6IiGi4RDhkGnv9wbcf8BLpTNM7TtasU55gXDYbvDQVya5zStYOaFgpPVdl3IROOTgEza4XWTwatUz5RaoPfDcx2btfpGI77HmEIO8avOtEzqL3es3r9/vpMirgDviBpwLCLMmnAkIZ4PCmYD936eCYiUNas5UWvJ4i/fgwPd4O4VIMEAkGGCwt/wIsqa1lNSl/d5S01zADp4ahmFnOodsbzcaDhIJBQmH7RB0M/d7MxmLyT1Hy5ZALWAaBmtW9TMy1Es7OOGZ3AJotVwV1k1wfNJu6F3RvRc7HFy257nAtO+cLSIxuNAX1iV0i/MsvWGAiAWRpGZrlfI/WgLf/5uLeGUqGLxULGO9Yq0TkUtRvRQ7vHI5dUyFqObx+sLbObjaUhI7bJmxLBKpNOdLPeiJEDCF4ILnG7I9365IiGDQ9oTryYJPZyy2PfYE8QqJYoZhN3hYM9LXVmVMuR6ruOyxomohcpTqDYIupYKw+h5rERcHLBhugwe9piNwDnXWT0dgxMET2qEvHdAzwMPZP0W89mIZ9IXXp14a0VJyPp7KDrGvA1XSaSWdTlJmu3exvjdgmkTDAcLhIN3hIOGF/d6wmddK8PTMHI8fnC4eCJ5Df18X69YMEm6zbRGlwGN1udwGQOAJrV5ys77S+wGYdqUY16NkYG3AgEHfjQctCANXwsnDiDro4lRNeG+/QlaZVvDi7B7vBkEutpANqF4iwgagu9Rxlah1j7c7EqQr+//dkaBfQtRmOGkpGU/aNbx2dnMyL9t5LmF7wfW2tcqt740livd77ZCzEAyYWBYk0+Vv0d1dYdavbd7kmWajlub/HkVc6bqUi8JhB8sqlmRmfI81D4FVfig4i8I5p2sNGKh2nxFnH9iKbH1cp4FpyoRhmuHx+nu8K49IyN47pbf0+81sKWmHnJVMsryghoMB1q4eoL+vy0uVMzVT5IW7vMea5QkHa9ZWenNUNTkpkqTGWdGdisKqgIK30+hahJSq2C9PpQHBC+c7tAxzHFGrxwuyQZHngm6s9/5UzeMNBky6wr7H20k4aSmZzliLHazyPd/04utOQ86CoCimabBmuI/h4R6k9jxAz1HUgN/tPVZsB8DBA5GTJkJxfGEFljxWbxZ8tZ4yu0TFKFQd2ugkFNxsSnm8r7o09DaFf1z4+frRC1BgLp5kPp5iLpH1RBL1jXNLpTPMpMt7vL7wdiYB06CvK0xfhT68J8/Ns+vQSY6ePF/Ru1UUwxA2Xrauo4YbFI2Mc7mO1TZh+R5rlnmgb5nmdAqrAvhPGQs4FlYc7G2acGIZtjQNSzmfW5bQHQ0y2FOi5EPt3rpz8RSzWQ/EHumWTX7xhdfHAbFEmoMnznLwxAxnZysHhUSWBsibhtFRogolQsEe8FipMHgkh6oeq0DMz9VZZMQX1iUaLaynqq1xA0NkLreJeTpdXhwXeusOltl7s+ss7XBfPDu0fKHu8nwsWVe2aTXh9fd4vU8qneHIqfMcmj7HsdOlR7ctEAyYrB7qYe1IL9sfP0YyZe+1SmdpKlDKY/WEsDqxoWquhpbqv7lyGfRDwVm0scI6e7lqLedrHVZmlpy6v7RVX50jLNRZmtmm9sU3zwXhXWhgP5dIMRezPd96hdcvJ/ImGcvi+Jl5Dhw/w5GT5yt2jQqYBqsGu1k91MtIfxcLnR1yj5F2zlIqQ6Zgj9XQjBfKbeYceJpdiBiVyhEV4p33L1YfAlHfY12iRO+3slTbY/WktwoghszmfpHS6eYFcBaFt8xjyKLwJtOLLf1mY/Zery+83kdVOXF2jgPHZ3ji5LmK/16GCEP93awZ6mH1YHdemHfhE6iFyT0dRu5kGwAM9z1Wh8IqU9A1WsG7FaizGLrzUF9Y66bi70w9LKxYMpubYJmqUIjfbBaFt8z7ucIbz/F4feF1EbWTkA5Pn+PgiRkSqfJlMiLQ3x1l7ape1g332mJa4S6eGzI22qE/YY0UhoJTlvvCasKck29R2nYmKtm7wr8YSwhEAwLBzn5OdIbUViFXcQfI8LCwpkxj1syJ6FTaY3WbksKb82FdEF67jZ89um2hq9CsL7wNZWY+weHpcxw4doa5eOX+vX3dYdaN9LFmuIdwMOC4vtXKXdmBwlrQdQkNmK4L6ymYc5LKK3aJYaWEzA7cFa8PhUhA/V/IArV8kyumpnrZY9VMYhZjaVu97nZ2HmBBeMvduFPpTLZ1X9oeYJ4V3nlfeB0xH09x8MQM+4+f4fx85Z2SnmiI1cO9rBvppauekW1K3kOTdNhMWSiYbANY6ZjrwvoM1diUSEar3NOkeu2+n66fQwA7aaf8iI2VQy3f5Gp3R88Kq9nDeXLGWBbt+3QQwYDJQI9ZkNKoi/+XSmeYS6SIJTKLbf3m4knmY3Z280oU3lgizeHpGQ5Pn+PkueJ5p7lEQgFWD/WwbqSPvu7y9atOsAoejzpPVilK6Dq7wf06VgC1a1DL5P7bGFUcMIFA595JakYD2L9UX1gb6LECp5djSDO5e5K52y/BIvtFWU5WcLsTDJgMBEz6KyRX5QpvrEOFt9bymDVZMR3ojWZ7JC2fwmt2Ylawlf95id93n3qld/0sVYS1Gn7kM58FYV3x/YJr/GBUCwU77jvcalRVX3lpaJ5saKedQ8HNxqnwxhc83mzzjFjc+8JbW3mMyerBbtYM9TIy0IU0Yf+zMCO4A7dYCxtEeMJbzVK1IkIrpp0BfmvcRSTrsfqFvYDU5rVX+9q7PrWiMjIL2gOQ8oW1bhaEV8sUXyVSS2VE8/GcPrqJJPOJdF2dq6oJbyhg0hUJ0rXQuSq81LkqEg5w+lyMgydmOHrqfOXyGENYNdDN+pE+hvu7MZq851kk7B3o/xT0Cna9hnUBJ2FcB8JaLrl/JZL0hXWJWoQ1TeWSGy89jZZAF+1Ld/Aeq9ssdK7qL9UykjLCG08TS9YvvMl0huRspmr7wFIIwvBAF+uGe1k91EMgW2tawZltGKr5wm10YCjYwx5r1ZJLs0Kd6v0igVUOBpOsIGYDCvOd9xGuC8ehDIFUlXuNxz1WcoTV91jdoqTw6tJ/JFJ2/e581suNxbNCnEwSq1N4CxGgvyfKupHexfIYNyjaY+38rGDPCKsuswZ1LfSv3EyNYhTmAuJ7rAs49lgVqn2OPPOlKcOifamM/5XwKgvC21fGF0ilM8wnUsSTGbuWN5FiPm4L8FyVPd6erhBrh3pZP9JHNOJ+V9PCUHAz9nHdpqCO1Uv3iKofgAzMlHvPgsHGmtPeKMwG8L531Spq2XyvWCEvnv+dyuyCa+TlBhE+lQkGTPoDJn1lkqsS2VaR9h/byw0GTNaN9NITXYr+eWEzoNBj7cRQcF7nJVEvCWtVj/U8nCz3nkCfFz5DHmI2IHDc/6UAtYWCq3XY9dKXpgTW7EL+VbrD+7OuZJZCzW5bUp2iEp8OTF7KrRkXb0y2AcBB9725Z6iWjWxasKrRNrUzAtOGw0G3KwHHWW3a5h6r5MyB9PdYfbxAkcfagaFgKzcU7IEh5wCIGA66LlWcLa1wQWONanuOGwJH3LbCI/TcL+JoE1+rN4DwxpemDKpLqf6ZjOWNWKDPiqYwcCJGZ7mslqV52dVqiCfKbaYchIEVHqv0vuELax4CJwzL91gXkPUOvdZqDyOZ2ma7tp6cMJTi7oQbHx8o1XmpsygotUEtyxNRrWT1EZgAU5Xe9D3WfCw4bpi+x7pIxnl2W7UPWi2zXVuOSv6XOu1nBvu4TKGwmh1WbmMVuuSGN6JaIRiptkZhssqSJzXInI7AgCNGxvdYF1GHwqowUen9lMeFlYLECb9JhI/bFJXbdJywFkSFPJK8lHGQeGRUud+J77HmIbDXGIdpqiTjrBScCmsAflrhbWuLqrd/n5L/tNyIRgM+Psuh05vwFwmreENYzerCOg88UvZdEVG4pKFGtTc6D3sNVC18r3WBtU4WbVR9jPIhdG+LKpTwWH1h9XEXyypoadhZukqmMBTsEY+1WqmMwIOjqmUjcBO2t9oGBV2tQeDIFtX5hdS7na5a4xEE1tWw/P4yr3s7cQnAYEVR+gAAIABJREFUyOR9qf1G/D5uUzh8rtOygguFVayMJ7KCDVhdZcl9ld4UGG2gOZ3Ablgqw66YjLOCcOSxZin3gfO8xyqan+rve6w+btPpWcEFs1gR0xseq1ZJXpIqwqqwsbEWtT07YElYd7hoiJdwLKwG/LDMW573WMXyQ8E+3qIwa7bZY+pajaUF37GMN4RVKnusRzfBz6oc73usOSj8ArLCKrDdXXO8gVVDKHiT6uPA4RJved5jxTT8ULCPpygMBXeasBYmCErA9ISwVvJYFb6czcGpxKYGm9TuPApZYQ3ZP3i7RKQFCKyvcf13SrycbpA5TUNSpu+x+niKopmvHdbSsKiMNRXzhLBS4Z5nwN0Vj7RHEF3daIPamHR31kk1AC5XTQDbXDXJG1yIiOOsCQu+VuJlzxeFmuH5gnIbz5vs0+EUhYI7rAt/4R5rzyoPNIiwhfGyMu8eHoUHKx2+Ha6ihh7rnY7Ajg2qccifIVExlr5CCG+rwWvtge8Bhdl9nnf/rtjNLDkPAL7H6uM2RU343Zm33jQKWhomPvGQ+7Xu2+yOSWWGDvLJamFgA65rvFXti8IDC/+dK6wPlFi74gjABqdrN6jGBe7JfU3awGN9j/2FWRwD5e+x+rhNUblNh+UFe3HIuQlXlHkrkYFPODjF0xtpT7sjOSWYi8KagR/QBqLQbKwahDXLv+X+oG3gsWbJGR3n9wr2cZfCUHBnySpYubNYPSKsAleWeevOzaoVR8Vlj/eFdQlN51SKLApr9he54utZpcb2XDG4V+y2kAu0xcOJ5AlrW5js08EUzTnvtKzgnAcHLd4+covLS7ymAh+pduB+kYj6iUuLCEzkPowUZgh8t8X2eJFLa1mc7Qt8x8LP7eKxWjnC6oeCfdym+NGus4S1oFewJzxWLeGxKtw9qlq+N3CWOXgGEGqKYW2I2vk2ixgFb36jteZ4j3o6iVjw6YX/NtrHY118avaTl3zcRgtDwZ2VFOxJYaV4jzVtwp87OVDheU2wp22RggqRvNy7HfDAKJzEwYy+TkXqENZx1W0TIj8SeHahx/qoyIABIYGeAMTSEAdIwqy7U3BkduEZwJ9u4+M2hWPjOs5jzf2OibourHeLmKMF0TmFT2cb31RFfGHN5VhhaVKesL5CNTMl8k2F32itXZ5iYEpk7ajqsVoOMuD/KjwbuGJSZAd2KntvMGeNxVKIIALWpMgxYL/AIYXHgAfPwY+eoRqj6VizCzcvf4/Vx206vVdwJvfv53CyzWMiIyn4mkC00faM2vf+cM5LxwPwZ06O3SkyDDy10Ta1KwrfKCxNKqoWU/giK1tYsWyvtSZhPQFfXwUHgYtw5vUa2DWz63NvKX1wbkrkbuCvRlUP1mJDbYifFezjGQqFtdPIzQounIdcjitVT06IfBn4P00yaxEDfnej6ikna9PwXCnOz1nJfKXwhaJfzhjcL7CvNfZ4lprDwTeqphXe34Br9yn8JrBzQuRXG3C+ciwlL1lWe2wM+3QsxaHgzsGyNL9Ot4ZZrOPwj5RundowFL60SfXrTtcb8Pxm2tNmHNphl6rmUfzUYT86fq4VFnkVqTONPAKfAQ41wgaFqMCXd4nU1L/YMZLz5dbilms+Pi0l16HruD7BBd8ttZzvsaqqCa9porMzlYC3Ol18t4ip0MwH/nbjU69QLQr5lXTnTfgUK7sp/1PqOehy1YTC3zbQjnAGbmvg+ZZQay73R7/kxsdNOtljLerF7TAUvMBG1VMWvExgppF2AScy8KtbVB2fdxM8C1jTYDvalZQB/1LqjZLCepXqEQo6Cq0wNtfSjD+XhP2LbmSjjebUiknhTNbOvbH5eJ/8PdbO+iwWlNogNYSCFxhX3YbtKc43yKx5C162WbUmT1jg5Q26fifwjU2qR0u9UVY8LPgHOu0T7pyebeX7aFZki2pK7dBKQ353FvyoEecpRDS/+0vKT2DycRHNCwW7Z0czyBTNjKtvyPmo6o8NeBFwZpkmHRe46WrVn9R0lO1sNCeC1p6UTSorK6xXq24HvtoUc9oAo85wMMC46v3kdGNaBo+Mw8MNOE8xWuix+qFgH/fI157OUtZCjxWr/gYRm1R/pHA9sKPOU0yZ8CujqjVPM5uyr7uuzut2Gt8ZUy07Vq9iuDNj1zV5fnB3MxC4ZjnHm/B24MAyTmEZ8Jam1SEYGV9YfTxD3se8w+JkRQMGjBqSl0owrrrjHGzB9picNplJAR/OwHUbVffXc12F2+s5rhMx4D1V3i/PZtVdwL821KL2YVmzBjeqnhL7g5io53iBD21S/e/l2FDx/Ja/x+rjHfJaGnZYhWTBLFYyKstuwv8M1diY6jsFRoF/onx4+LTAxxU2jam+a7PqXJl1FdkvEgFeU6+9Hca91e7NVT/CQfhT7DaHK41r7xdZ1rjlUdWf1bPfqnDPJPzJcq5dFcMPBft4h9xK6k6bxVoUCs7Ut8dailHV3WOq/2sKVondDek1Am/O/v9Tp2HNqOpbxlX3LOc68/be6lBDjG5v0uKgQ1VV4bhS9eSkyLuBzzbCqjaiZzWMA48u5yTjqp+eEEmI7flX/X0r/MiAV5aqjWokKUtmTVm6mfnC6uMmndx5qahGPGA2vFdw9n7xSPbPIqMNOr/CbzfoVG2NwkfGHEz/cRR0GYPPA99atlVthmWPRlo246pfzO5PnK2y9FM98IJRbX6Tbi34cqctPyvYxz3yQsEdlhZcmBRMMuZ6E/5a2CFyBfAct+3wAPutKnurCzjbzVDVDLwROLIcq9oNgV9p1LnGVb+Wtj3gjxUUeltZL/V5Y6q/s0E13qhrVsJK53+50+nO9Rh8vE/up6/DtliLp0f1e2ZsnCMsu8VqZz3t1IHAW5zuUTv+DG9WPWHZcfuV5Npc38iTPVn1iTHVt56AEYExgaeasHpc9TmbVL9X/QyN4+wGCjxWPxTs4x75mbOddQ8vSF5Kbp3Qtulq9xORKPA/3bbDA3xyVPVep4treji8WvWHCr9Xu01ty2U7RC5u9ElvVE2Pqk6Nqj7idKJEo7nvPk0Di+Pp0mlfWH3cI2+PVToreuLRIeeO6IU3AavdtsNlfhq2yycdU3PUZUz1U8D7aj2uXbHgRrdtaCJLo+N8j9XHRfL91Y72WNtGWO8WMQXe6bYdLnM8Ay+/XLWmssm6tjPG4C/FHme0ErjZbQOayJKw+nusPi6SGwruLFktSF6qsQG/m4zCy6iztWuHkLDglZtVD9d6YH15Aqo6qvr7wB/XdXx7cZPbBjSRHI91JW2d+3iNvFCw0VnSmpu8pAU9ur2MwrvdtsFFkgK3X636w3oOXlYC3pjqB7AbILTNZnwdDGwT6dQ9hhyP1Q8F+7iHdm7jpbbcY90pcqXYVQwrkYTCbaOq36z3BMv+DI+pfkzhJoEnlnsuj/GgwG9kYN1m1RNuG9MkFr/kKX+P1cdFrA4eb5MvrM2vUW8EG1UfC8MI8ELgY8BBl01qFXEDbhtX/c/lnGRZLfsWGFf9r0dErgnZTaHbuZ/kUYEvZuAzV6vudNuYpiM6i9o3Mb/zko+r5Ahrh+lqwf5x49oZNptsws63s3/eOinyZODFCr+WbZ/YaRw14LZG9GhviLACXKM6Dbx2SuSLCh8FLm3UuZvMCYGvWLB1HH6E6opRGFGZXfjKp/zkJR+XULTTBtrkkTePtY2SlwoZU/0l8EvgfTtFNmTg17B7CD+TNo/gK/woA695smpDIq8N/2WMqt4rsEngd4FDjT5/gzgg8M8Kz5+C9dkm1fe3s6g+KjIwIbKppoM0P3mpk29uPt6l8FsnHeSyqmrhSLy2FdZcNqruH1P98JjqsxTWC7xZ4R6gJZ3jGkhC4c93wM2NElVooMeay6hqEvjEbpHPJuCVwG8Bz2rGtRySBH6scK8B946qTi680a6781MiIeC5wM0KNwbhEqPG3sZqyPnFEJza2YsBs60fPH3akMIG/J0krIUj45D2CQU7ZVz1OPBJ4JNTIj0KLwBeDNyKvU/rSRS+F4C3blR9rNE60BRhXSAbo/888PltIleZdiP6W4FraWLoQGDGggeBBw14oAt+3qoevM1mh8h4tnfn61j60FoKL92k+ngt51LLmsu9iaUtX1h9Wo9VKKwu2dEMrMI5x7q8IedeJztA5CvAV+4WMcfhegteBNyCvS/r+g1G4RcG/NmYatMGyzRVWHPJDk3/a+CvHxFZFYJnCzxV7V/2ZmB9Hac9ATwh8JgF2wyYzMD2q2Ffp82hmhJ5kdqTFZ5e+J7Ae8dU/6PmkxrM5sZ/02mF4HKs9PGpnaKvquu33saRKYxza+d5rOXIjrL7UfbPn+wUGbbsCNst2H9amYdjKXzLhA9vgu83Wx9aJqy5ZBOdvpL9A9ihzTQ8KQBPUlgjYChEBSIKCYF5C84adgz/aBcc7hQvtBJTItcofBA77FuKb47W22Ky4EteFLby8WkBhWPVjA7yWYs81oJQ8A6RWwRc6xneSrJ/x7uzf9gmcokB1xmwRWELtpM10MBLphUeEvhaGr7UyD3UargirKXI7svuy/5Z8TwsEozCBxXeRvln+Mfi8Ia6k65EZnPLHPySGx83KPQdOnqPtTh5KZSBY1Miv1T4vsC3R6GtEymdsll14X5/18JrEyKXAVsErla4ROASYAMwDITLnUsgpnAAmBLYqfDfYfjh5arnmvu3KI1nhNVniV+KPCkCW9VOYy/HeYFf26I6U2FNZVRmc9ufpzN+W0Of1lOUvNRBLQ0zRe54/h7rJtV7JkX+SuGvsD23P5yEvSLyqTR8poOb05RkXHUPsAfYWvjelEiPwHAazIXXQhAPw2mvRS99YfUYUyJPCdgF2ZXaKKrCm8ZUp5Z1MSMzi7V0E0sVhq18fFpAYfJSJ6EFHqtYxXusY/C+STsU+tLsS5cq/K0J750QuduA/z2qursF5nqabGJUW+xRd1CaQPuzQ+QKhW9RZf6hwvvHVb+63OsZKnkNwf1+wT5uUOixGh3lseZ/p9IBKW7Cr6pheIPAroJ3QgKvVZiaFPmHbSLdTTTVp4H4wuoRdomst+A7wJoqS7+9A/6iIRfN5D89+/2CfdygKBTcQbelwlCwZoySHtflqucsu5NRqek3QeCdJmybFLm28Vb6NJrO+QS3OWn4F+xN+krsFXhNNo192UjAzPuS+x6rjxsU77F2TmjYKhTWZLxsKHNcdYfCG6FsE7RLgQcmRd7QOAt9moEvrB5gSuQ12EXUlZjHHmV0ulHXNVKxgnKbzrmh+bQPRfk90jm3pYKRccSjlfcIx1W/JvD/V1gSBj47JfK2Bpjn0yQ65xPcYh4W6ZoSeeGUyAeXUx+wS6QXeypQRQR+O9sEu2H0rMr/kvtZwT5uUBwK7hwKhDV1z+OaqHbMKPwlcG+FJaLwkSmR1y7XvgW2i1w9IfIHO0WubNQ5VzK+sDpFRKZErpkU+aNJke9F4LTCvQrv3gZPqve0aXiDwqoqyz48qvpv9V6jHJ94SFPA4hfdr2P1cQMtcFk7qIyVTP53yllGq6plwWuxy07KIcCnJkQ2129d3sluEPi7DOyaFNkxKfKBSZHrkQ4KH7QQv9ymAlMiIQueb8Dt2cbSJbN1TbgCOFzzBWxP9y1VVt03DX9Y87mdM0u28DrlC6uPCxSGgjupQURBKZHjUpGrVc9MiNwm8F9AyWzgbGe6TyNyXQNa9OVOxtqY/fOHk3AEkbuAO8ZUf77Ma6wY/KeRAu4WMSdEnj8l8mmFYwL/rvB6KpTAiC2sNTNhT6MZrbDkUAZedaNqup7zO0Fyvuy+x+rjBoXTWDuqQUSmPmEFGFfdhj0ZrBJPm4JX12pXIVL+PrQeeCfws0mRxyZF3jslcvlyr9fp+MKaZVLk2imRj43CEYFvK/wGMOjw8Ho/aDdVeC+ucFuzO69YOS3W/AYRPm5Q2Lyvo3oFW3WEgnMYU71T4UOV1ij8TXaM5HJwMsv5CuAvFR6bFPnehMjtDbhuR7KihXW3SHhC5HWTIj8Ffqbwe1RpzlAKq06PVeD6Cu+9ZVz1oXrOW6MROR6rn7zk03qKxsZ1iMd6bjbGfDy59ILU1zXoJPwx8IMKSzYAL6zn3ACPigxQ23QxAZ4rdo/fw5MiH5gQubDe63ciK1JYt4lcMCXyvgQcFPgCcN1yzifwlDoPLTmYXODjo6r/ugyTHCM5BekZPxTs4wKFoeBOyAuenYuz5+CJvK1P0TryMIAbVdNBeCV2k/lyvKKecwMES4yidEo28fIPBfZMiXxhSqTee2FHsaKEdafIhkmRz5qwT+HPqMM7LcOGKZG1tRwwJdJD6RFJDwLvaIhVThD191h9XKUwK9gw21tY5+YT7D5wIq85hMIjZib1+/We80rVkxb8OvbYzCIUXrJbpOz0lyqUjZzVQFDhdQqPTIh8d0rkWQ04Z9uyIoR1h8i6SZGPZuxenG+kCdnQAr9Sy/p0+RKb72dH6LWGnJmsaX+P1ccFikLBbZwVPDef4PH9xwt7BD9KKnXLlw7omeWc+2rVh4HfLfN2X8LO5K2HhoqgwC0KP5oU+faUSN3ecDvT0cI6JTI0KfIBC3YDbwWattFu1SisgfLC+o6dIsMNMMkZ4mcF+7hLURP+Ng0Fx2JJHj+YL6oK21LJ1C1bDzWmY9qY6ueAj5Z5u1KFQUmyyUfL2gqrwPMV/ntS5BvbRK5q0jU8SccK66TIGxQew64B7Wr29Wr1WCm/kdRn2ckKrSHHY7VUi3qb+vg0m6JB520YCo7Fkzx28HhenoLATjT1gq8e1lONvFYc3gX8uMRbTjJ78xB4Ks2/P77EhG1TIh/cLdLX5Gt5go4T1u0il06JfAf4HPbU+Zag8LRa9jgsqDTZ/q2/FKm7m1NNCHO5P6b8zGCfFlPksbaZrsYSSR7ff5x0Ou+781jKSt28dZ8ea/T1tqimBF4h8ETBWzXf7zJwc4PMqkZI4d0J2DUh8roWXdM1OkZY7xcJTIj8vgG/VHieCyZ0p2rYq7BKj4cC7I4qZqNGw1VDrYJ+wb7H6tNaioW1fZQ1nkixe//xvFI1gceNdPCmr+zXo826bhrOqz2YI/e6Nf/iBF7WOKscsVbgC5Mi92wTuaDF124ZHSGsUyJrR+D7Yjez73HLDgtudbp2Dk7Zh5RG4Dd2iNRVH1sLUjjs3N9n9WkxRc342kRY48k0j+8/TiqdJ6oHUpjPu+Pg3JFmXtu073V59wetMSlzh8g6YEsj7aqBF5mwrVO917YX1gmRZyo8LPBst22hBmF9hmoM2FdhSdCC9y7fpCoYBcPOfWH1aTGFWcFmG+yxJpJpHt9/lFQ6r9voQcsyb/rK3liletNls0PkZZRudVh1ck4uCi/GXQ0YzHqv//oTkaiLdjScthbWKZHfEbiP2rqGNJMravQyJ6u8/8qmF1xbhaPjfGH1aS3F7eO9fVtKpjI8fuAYqVTunqoezmTMm7buj1V6WF4220RWW/DPZd4+VMu5tPVh4HK8qQ8enhKpOavZq3j7E1wOEWNK5OMKn6CJJTT1UEs4WGCiyhLDgg8u06TKNhiFe6y+sPq0lnZKXkqlMjy+/yjJZJ6nejyjxvO+fCC2t6kXFxETPgusKbPioNNTZbNzK/UqbzWbgP+aEnmu24Y0grYT1rtFzEn4jJYvlHYbx63FxO6yVG3NLVMidbcrq4olvrD6uEphKNirJNMZHtt3lES+qJ7QjNz85X2Jnc2+/qQ9YvJF5d43YL/Tc8Xt+1SkAWY1DIV+hXsmRF7vti3Lpa2E9X6RwKjd2/eNbttSgWc4Has0D/fjYF9E4R+yLRAbTirgC6uPuxS2NPQi6XSG3fuPkUjliep0xpSbtx5ITDX7+hMim4C/q7AkNQ/bnJ5P4E3LNqo5hAQ+NynSzBnUTadthPV+kcAquJMGzB5sMmKBo0y3LarzlC70LuQC4C+XZVUZNGP4wurjKrlN+L0YBU6lMzx24BjxRCr35TNi8cIvP56oliexbLL18V+kciOHX2TvJ1XJPvg3oj9wsxDgA+0srm0jrKvh77GbUHsegdc7bXgqcK+TdQrvyD61NhRNxvOFtQ28B5/OIjcUrB6T1nTG9lTj8TxRPWsIz79zf/IXrbAhCX+X7ZBUiarbSguoHfHz1i+6NB+YEnmX20bUQ1sI64TIbyjUPRnCBS6dcvhEaMIdAk7aHQWlfI/QuolHC7KC077H6tNa8gadi3ce7DIZiz37TxR6qjMiPP+OPcnmz0oGpkReqvC2auu08rzWJUQM4A3LtatVKPz9pIjXo5RFeF5YJ0SeKfAxt+2ogzc5WXSV6hGF7zo8582TIq+q36Ri7nlcE8DiNB1/2LlPq8kLBXtEVzOWxe79x/MHlcOcgb74zj3Jn7fChimRixQ+QxXvUmAmAt9zcs5Ju2rhokbY1yIE+Mx2kZKzq72Kp4X1EZFVAl8B6p0z6CaveUxkxOHaz9Vw3g81oZG1P+HGxzXydh88EKC0LNtTLRDVeVW99Y69qQdaYcP9IgGFO4AhB8u/ebmqo+YQAv/f8ixzhYgBX98l4pV+BVXxtLCG7LZdNQ0Q9woK0ST8jpO13fB14LjDU69Pwj/Ub1lJfGH1cQ0vZQVblsWeA9PMxfJ0ah5Lf3XrvtQPW2XHKvhr4JkOl3/ZyaLtIlsUnlO/Va6yOgWfy4ayPY9njZwSeRHwGrftWA4Cb83OO6zIBtW4wv91el6F35wQ+dXlWZdD3kxW79zkfFYG+Q0i3HNZLUvZc3Ca2fl47ssxQ/Qld+1P3dcqO6ZEbsYed+mEIzGHCZBGe3qriwjcMgXvdNsOJ3hSWHeJ9Gr5tl3txHp1mMmchn+iwsSbQgQ+2bCB6Op7rD7ukeuwuiWrlqXsPXiC2bk8UU2qWK+4Y0/q+62yY5fI+mwI2Om9+eNbVFPVFk2IXAi8fFnGeQCF902IXOa2HdXwpLCm4U9prw32SrzDyaKnqJ4Vu0WjU9ZZthgvnxxhPR9PMnXwJMfPzuVN7fDxaRa5Hqu6oKyqyr5D05wvEFUwXr51T/o/W2XHlEgoDXcDqx0eksjAJ50sFNvTC9ZtnHeIGPARt42oRk1jhlrBlMgQ8Fa37Wgg102IPH9c9TvVFqbhg6a9L+soOUnhlZMiXx9TvXNZForOLvgKyVSG7fum7ZeB3q4QQ71RhvqiDPdGGegOOy3R9fFxhJXXIKK1ny1VZd/hk5ybjeW+nBKV2+/cF//3ltoCH8b5vioK/7ZZ9US1dbtE1gv8bqds8ijcOiFy67hqyx56asVzwmrB2wV63bajkQj8DSLfLeo2XsBm1RMTIh8Q+JsaTv/xbSI/3qx6uG77VGZLeQoKnJtPcm4+yf7jM/ZaEXq7QqzqizLS18VAb4TerrAXkjl92hR1KRasKPsPT3PufJ6oZkTlDXfuS3yjdZbAhMjrxO4F7JQUDu8T2QhgR41lE/hrRO6pdk91C/GSXdtEuk27kbTTMpW2wYBbN6neU23dfpHIHOyitlD4d8bghfV+yG6/JPgcEfl14OnAU6hxYlA4aDLYG2WoN8Jwb4TB3ijhoLn4fjWrqhmtZX+o4/iFn7Tc+3Wcvyl/Py39fi3nL/6r1nb8wvsVF+iy//3+a9t+5rOdjUzTYPTKJ5XQV8n7v4L/LIuUWakKB49Mc2YmrwtgRkTeeOeexJccnLphTIk8Re3OSZVaFuah8Ilx1aqDSLK1sI/RniWLFXF6T3UDTwnrlMjbFP7RbTuaxENjcJ0T8ZsQeb3A52s5ucDbR1UdZxaX46abJDB8OHRVIKNbgOtVuAFlIzXux0dDAQZ6Ioz0RxnuizLYE8E0Sp/CF9ZSP6wcYX1w235iWWENmCabrlzfVGFVhYNPnOTMubncly2FN23dm/yCg9M2jMdERlLwEHBxDYclFK4YV606f3VS5FOUHoreCTwwpvpst40ohdeE9b8U2qrDRi0IvHRU9ZvVF4pM2p1Ubq7h9EkLbrxa9Sd1G1iG110hfUkrsBlLtohwPfBsys+ELImB0NMVZLAnwnBfF8P9UfqjYRBfWFe6sD7w6L7FUWyBgMGmK5rnsdqe6knOzOSJqorye3fuS9aSPLhs7hYxN8G3BG6p8dC/G1P9o2qLdohcYcEknZG0VArNwKbNqrvcNqQQzwjrTpENGdiLJ3qvNI3JaXjKjarpagsnRC4TewyU4/AQcDgJT71Gdbp+E53x6ou611uBzBZEt6B6PXbSRS22EjQN+rrDDPZGGOyOMNLfRVek+B7gC2ud528TYf3RI/tIphaE1WTTFc3xWBU4fPQUp87ktcdWFd66dU/y4w5O11AmRT6A83rVBQ4LbBpVna22cFLkG8BL6jKuffjAmOofu21EIZ4R1uyIoA+4bUezEXjbqKqjZvoTIu8W+GAt51f43g544StUW1orkxtCVtiCPYTgGuoIIff3RGyx7Ykw3BclGFjar/WFtYbzt4mw/vAXexdLu0JBk6sub7ywKvDEsdOcPJ1XKq4Kb9+6N9nw4RbVmBR5I/DZWo9TeOW46tZq6yZEni/w7XpsazMOjqnWEkZvCV4S1p8C17ltRws4LXDFqOrpaguzM2h/jJ1UVAvvG1P9i/rMaxy3j0sPscBTsGSLIWxRuAG4pJZziAi90SADPZHFP0O9UYyckh9fWCu/4XVhve/hPWSyjUlCIZOrLmussCrCE0dPc/JMQf8V1T+6a1+q0vDwprBD5NmWPXijpiRBhe+Nqz6v2rqHRYIR+CXQ8DGTXsSCzVerbnfbjlw8IawPi3RFYAYPlv80iY+OqVYdBQWwXeRSAx7BYW1rFjXgtk2qX6/PvOaRG0JWZYug1wODtZzDNA0GusMM9NhebX9PhL6u8kmPvrDWefzC+00W1h88tBsrW3ITCga46vJ1DRXWI8dnOHFqpuAN/dO79qT+1sEpGso2kUsC8FOFVTUeOqfw5HHVPdUWTor7FPNqAAAgAElEQVS8k8b3E/cyfzSm2vIHpEp4QlinRG5QaMnUCI+QFnjKqOqkk8WTIm+gtgk4AKdN2LJRdX/N1rWQ20VM6/LQxpwQ8hbgWmp8mo9ks5AXxHaoN0ooW/LjC2udxy+832Rh/f7Pdi+eJRwKcOVljRPWY8fPcvzUuUKL/uKuvan3OTi8oWwXGTThJwpX1XH4b4+p/ku1RY+IrArZ5TUDdVyjLVG4Z1z1VrftyMUrHmKtoc52J6DwUURudlJ+M6b6+UmRF1DbUIKhjD1q6VlXqTruQdxqttp7wZPZP58HePPTJHjmbHAzGW4whC0qbEHZRIV7aTyZ5tjpWY6dXsrp6I4EGe6L0r8YRo5ierKJ58pFc/4XgAZ29Tp2YqZYVEXee9eeZMtFNRue/XI9opoVjqqiChC0uzetGFEFEHiq2zYU4gmPdULkLoHb3baj1Qi8eVTVUa/Ph0X6o/CI1rhHCXxrGl7sJBPZy/zaJTIQMgJPA+OGbAj5V6ixkYiI0N8dZrgvykC3HULu7aruGPsea+Wjl+Oxqirf//nuxZ8jkRBXXLJm2R7rsekZjk/PFL78obv2Jt9dxdymsIx60hMGPGWT6tFqCydEbhX4jzqu0fak4YInqz7hth0LeEVYH/biU0ezEZhJwZjTD8R2kWcY8ENqr0v75Jjqm2u30Nu8+qLu9RpIX6/oDSyFkSO1nCNomvR2hRju72KoN8pgb5hwMD+Q4wtr5aOXI6wZy+K+h5a2DaOREJcvU1hPnDrH0eNnCw//P3ftSboycqzeigeBDPCCUdWq03V2i/QlYAK4sA4TO4Gbx1Tvc9uIBTwRCha4wG0b3ECh37SnUzjaH7ha9SdTIu/SGma3ZvmdKZF9o6rvr91K73LHwbkj2NNA7gY7hHxqJnSlkdHrDbjBSQg5lclw+nyM0zn9YiOhAP3dEYb7Igz1ddHfEy7bNcpneRSK9nIHPEyXElX4R7dENdsDuK7vncL/HnMgqgBJW7hXqqiCx/7urnus2b2HOB4dYdciXjOmeofTxVMin1d4fY3XUIVXj6veVeNxbc1C1yixuF7FuEHQ63A+lguwu0Z1d9klP4O9UYb6uuiLhhbl2vdYazh/weJUOsMPf7F38eeuaIjLNtTnsZ48dZ4njp8pPPBftu5L/Y66cKObFHkx8FXqc2C+NQa3olp1QHK2fOc+VvA9VOHPx1VrGV7SVFwX1myT6AOuGuEyAtPA5lHVY07W/0Qk2mc37b6mxkvFBZ43qvrjmo3sIHJKfq5H9QbsbYiapn8ETIO+rjADvZHFsXqFIeQFfGEtf7FEMs0Dj+5b/Lm7O8ylF62uWVhPnj7PkWNnCq/1mdH9qd9+jwNxajRTIs8Cvq31TZU5FISnXql6strCbAj4EeDSOq7TMSh8aFzVlf3zUnghFDzstgFuk61p+xwiL3LyhPoM1dg2kV837ebdQzVcKqLw9W0i13uxv2aryIaQjwD/DvV1jUpnrMUQ8l5sL2khhNzfY4eRB3uimH4ackUKRbmeeaynzs4Wiyp8zi1RnRR5MvBN6hBVgZgFtzkRVYA4fExWuKgCGDW2U202rnusO0SeasHDrhrhERT+YFz1752uz7Yt+09qf0A6bMFzrlbdW33pyuSlG6U3nAo8Oadr1LOADbWcQ0ToiQbp747Q1x1huD9KX1fxoPiV7LHGEike/OX+xZ97eiJccuEqxx7r6bNzHDp6qvC8W3Vf6jVbW9zWExYbuvwYWFfH4Yq9LXSnk8X1TMHqYD47pvo/3TZiAdeFdbvIFsP2vHwgJfCsUdWfOj1gUuS3gE/Vca1DGXjOZtV91Zf6QGO6RgUMg95s16j+7gj9vRF6ojklPytMWOdiSX6yfWknqLc3woYLnAnr2bNzHCwSVf3yiYvTr77vvtaXl2WbM/wYuLLOU/z1mOpfOllYZ0e2jkXg06OqnhmP54VQsM8SQYXPT4lscTK9AmBM9V+mRK5SqHV/4UITvrtN5MbNqofrsHXFURhCrqdrVNqyOHM+xpmCLOS+bAi5vzvCUG+EYGBlhJDrDQXPnJvn0JH8dtuq+tXB4fRr7nJJVMPwfa1fVL86Bu9xsjCb8HkHvqguohCrvqp1uC6sAWj9Joi3uRL4GPAGpweMwh9N2vsst9V4rctM+P4OkRudFKD75FOqa9Qb1kp3vDtwzWII2S75Ga10nngyTTw5y4mccWZdkSBDvVH6usP0ZTtHGQ3sSuQV1MqXViflNufOxzh4+FSer6wi986aqddsfUhTDTeyCjmienWdp3g0A29w0oUNIGKX1qyEgSWOEV9Y80nD2ZXxbO4chddPiDw0rvqPzg5Q65zI63rhBwK/UuPlrlS4b0rkRqdZyT7l+fwxncMOBy5mXt9+iawVCV+bE0J+BlWS9ubjKebjKTtfHFtw+rrCDPZF6c+KbU801PbDiwu1pJqwnjsX48DhkwUBaPl2t5W8beseTTTBxIo0QFQPKbxks+pc9aUwKfIqwJWaXC9jwQm3bcjF9T3W7GQbRx+qFUbKgFs2qf7I6QETImvEvqFfXuvFBLYH4Gan2Yg+y+PlF0cvDZiZG3JCyDV3jQqYJgM9YQb6ovR32zNsS82u9fIe69nZGA9NLe1EDA308KR1gyX3WM/P2qJq5Rv03S5NveRf92m8ihkNpwGiejIDNzjN0N8ucrUBPwG667xexyLw2lHVf3PbjgVcF1aASZEZ/P2CUhzPwNNq2QPdKbIhY08KqrmblcJEBl7opZ6bK4V6ukaVIhIKMNBrN7Lo77b3bMWofAo3hfXMuXke3rn0cSsnrLNzcfYdOpnn4So8EJlPvSgbJWgpDRDVOYHnOk1UfFRkIAg/p46H5pWAAc+pxQlpNl4R1l3Uv+nf6fwsDM++XJ2HuSZENhnwQ6195iPAgQy8YCXXuXqF2y+TfghcndM16unU+G8q2a5R/V0RBnqjDPRF6Y2E8uTaTWE9NTPPI7uWhHVkqId1a/KFdXYuzv7DJxdntmZ5ULtSL9w64SzJr5E0QFTTBrx0k+o9jlaLGJPwdeDFdV6v4zFgvZfyRLwirN8HbnbbDq8i8IVReKPT5Aaw64MVfqDQX8f1phVuHVP9ea3H+jSXRnWN6u0K09dte7aDfRFCZbpGQXOF9eTMHI/uOrL488hwL+tWDywK61wswb4DJ7HyUxx/Eg+lXvCNna0fh7hLZH0Kvi0wXucpLIU3jat+wekBkyLvB/6ozuutBE6NqdY06arZeEJYp0Q+ovB2t+3wOH81puooHX+B7DSc71LfnsycwMtHVb9Vx7E+LSK3axRwvQo3oGykxr6x4WzJT193mMHeKAO9kcXBA80U1ukzc/zy8SVhXTXSx9pV/QgwH0uw7+BJMlaOqAq/CKRTt3zpgBY1BW422drRb1N/OFYFfm9U9RNOD5gQ+U0BR7NYVyoCPxxVvdFtO3LxhLD6Hx5nKPzeuOo/13JMtkH3fwI9dVwyCbzRaScYH2+Q2zVKhOtBngW6tpZziAjd0SB9XRF6s2Lb1xUpseO7PGE9fnqW7buXInhrVvWzeqSPWCzJvoPT+aIKj2oq9dythzS/gLUFTIg8LdvlrKYBDjko8L/GVD/m9IBJkZuAb1GhLtoHBP5+VPUP3LYjF68I69PE3pj3qUxK4dZx1e/WctCEyI3ZAcj1eK6WwDtGVWsdVefjIUp0jboBGKjlHKaRDSH3LHm20XBgWcJ67PR5JnYvVXmtXTVAb0+YvQenyWTyRPWXqWTquV89rKdqsbkRTIg8T+wpNfU8nAKg8I5x1Y84XZ/NAP4xflJnVRRuG1f9mtt25OIJYf2JSLQfziuY1VeveM4pPGtcdVstB02JPEvtJ+7eOq/70Ti8a4u2vgDfp/GU6Rp1HRCs5TzhUIDergh9PWG7zrY3QiCQ/zWuJKxHT55ncu+SsA4N9jBzbj5PVAV2GqRu/Le9erwW2xrBpMirgc+yDK9R4Q/HVT/odP0ukfVpu6zmonqvuYLQDKzdrOrXsZZiUuRR4Mlu29EmHBV49qjq7loOmhB5psC91P8UfH8Sbr9GdbrO4308zO3j0kMs8JRaukYVIgLdkRB93WF6s3u2vbldowpuN09Mn2PHviW9lOIlO1JG6sav7m79jXNC5O0CH6b+Oacq8PZR1Y86PWBKZMiCHy4jOWpFIbB9VHWz23YU4iVh/RDwLrftaCMOZMX1YC0HTYk8XeEeahs3l8t+gV8bVX20zuN92ohf3yDrAkb4aTkh5GdS42dHROjtCtGf3aft7Q7Tne0adfjEDDv3l9ZMgcclHbwx26O5ZdwtYo7B++vov72IQAb4rVHVzzo9ZkqkR+F7wNPrve4K5P1jqn/ithGFeEZYJ0Ruze4D+jhntwHPrrV+a0Jkk9hJEfWGmuLAm8dU/ZFVK4z3ihiTF4U2Yuh1YvB0VZ4udj1nTe1RQ8EAfd1hLIXTMyX7O+zWVODGrYfmW9qsZJdIbxq+CLxkGadJCrxuVPVupwdMiYTUnuH6gmVcd8WRdS4ecNuOQjwjrNkP9Clq3ONZ6ShMBODGjVpbUseEyIVZca0p1Jd/aT4wBn/mZDi7T+fy5qdJ8MzZ4GYy3JATQq65a1QO+1QCN27dM19TNGa5bBO5KgDfULhqGaeZz5ap3ev0gPtFAiNwt8DLlnHdFYfA9AlYf6O2fppRNTwjrACTIj8GrnfbjjbkIev/tXfnYVKWV97Hv7/qhkYUSYzmGjUucQG6qhpB1LgLisS45XXcfc2rGY2JMzpRY9RoMtExbuMaNdFg4qhxR98YHR3juKKCG6J0VTUouKGggnFBoGnoOvPHUxqDLF1VT9Vdy/lcF5d/wHPfRxTO89zLOTCuw4q725eT1rGoBdqOZcz93z1wlO+7ui86ZEutR75luwQt25mxHVHVqNX3rjW9kyCx822vL36j4kF+QU76jsGtFHlSejnz87B/h9nkvj5QWHa+weDIMuZtVlenzE4MHcSK1FpiPR24MHQcdWpqPxhXbBH9QhOE2ymvXNrcQjWZh8oYwzW4vlSNUj+2u31GT1Wv3mWknybggjJvJcxMwN7tZq/29YEJUksyajd4RBnzNi2DndJmk0LHsSI1lVinSd9sgVmUvoTU1AwyCdiz2PZvhT/gF1NeOyoDLm+DM4upa+ya1yFp9WdR/38TdhbRvv3cHlu69Z9et4+qMX/hmt/4cr8WDZ5ZCvsXs2rzuNT6dbjZ4NBy5m5is1KwZTFlXqupplqhDjd7HS8UUTJB2uCJaVJRnW0ONutNmZ1icCxRtaUSp+eUJTAlI9Xc8XdXe+7MWI+izk3zelu0zR2v9WxWraSak5JrwzMxJNV7lsAexSTVKVK/9eB2T6plGV+rSRVqLLECCO4IHUOdG9ICT0yXNi32wbTZHxKwJ1BOT9ZUAp7JSD8qYwzXJAx9aNIed726JFuVCSXlpBMMpgDlvAAacGEaDhxltqivD+Wk/m1wJ3BgGXM3u57eqGhHzaqppWD4/LTqG9Rg0q8zc4C9U2YvF/tgodj4vUCqzBjubYXjh5pV9R6icysyVVqvP1wP7FvmUAsNjkmbFfURULinejcwrsz5m91tKbOa3peuueSVNptN1JHFlWcD4KmctFexD3aYvSbYnuhQUzn274VcRvrxBMnLVbpgctLubTCV8pPqbIPRJSTVdYCH8KRaLkvAJaGDWJ2aS6wAgmtCx9Ag1jL4c04q+u0uafZpyuxwRe38St13xWCw4IoUPNkleZk2V1U5qX9Wusjgfww2LHO4R/vB1mmzF4p5qEvaBJhksEOZ8zv4r3azF0MHsTo1mVizUQWm2aHjaBD9DW7OSCW1VUqaXSXYFSjrsr7BDnl4MSedN1kqqjG365tXpJpq9hxaRtrR4EXgNMr7uy4vOH8efLvY62xdUtrg6TKLTriCBJwfOoa+qMnEerBZLzA+dBwNRIL/yEnXTJGKrmyVNHu2X9T9pNym5/0MzlwbpnVJY8scyy1nGZzeJW0ZOo7QpkiDc9I1gicp/5zA+wbfSZqdVWyFn6w0Jg8TY/hSdpFH2s2eCR1EX9RkYgUoND4veQnSfZnBjwbAQ6V82Qwxm5+CfQQ/IbpzWI4t8vA/WenOjLR5mWO5AoMte+GK0HGElJUOHAA5gx9R/t9vj7fCyFIKn2SlHwB/oS/VplxfnRc6gL6q2cRaKHLgRd7jN3oZPFfSXVOzfNLssnzUt7OofrArcbAgl5N+3cjLmFOkfp3SZjmp5EbZfbSJYO+cVE4B+bqUkTbKSvcCdxEd3CtZoTPNv+dgbLEn2idILYVOXePxuudxmpQyeyx0EH1Vs4kVQHBR4X9yFyODbwqezkgHlPJ8h1lnG2xncClQbgH+/gb/ugxm5qSfNdr+a0b6pwHwZiKqKPZ2TvpJBafbGMDg8kb7fVyZnNQ/J50iyFJeWc7PvCLYOWX2y8KWVJ/NkAYl4R68/WXcLAE11xpuVWo6sSbNZpoXjKiUtQR3Z6VzS7kKs4XZkrTZqYoKSrxZbjAGgw3OXxteyUnfb4TrOTnpPMEfgPXh83/HS7LSObFPJom/9UndbHB0YKehZaQDDDKFF7xBZQ5nBld1w8hS9vEy0ua98DTlX+dxyxHc2W42MXQcxai5AhHLy0kpi5Yda/oloM49Jjii2BrDnykscZ5ncAIx/XcSdObhV11wd7FfDrUgKx0LXLeSn84nYEzcf1lkpTyFOtuCxcsgVSgT2lBy0nZ5uLhwWj0Obwm+nzR7tJSHM9K+iratfD81fosE7UmzqrYQLFfNJ6ukWZZoecVVzhiDl3LS7qU8nDT7NGn24wTsZJCJIyCDDsEdSejKSj+YKbXFMW41FE7mruoQUSIP15VyQntV9IVleYM1WuDyOMcPLSMNz0p/NngmpqSaB37bBh2lJNXCfuq5iqqUeVKtAIOL6y2pQh18sQJkpHZFX62toWNpZJ8d2kjCr0ptXp6T+gNnGJwJxJkM5wgua4HxQ80WxDhu7LLSffRtSfDolNmNMc7bw3IHZhRdFSn3mlRQOSkF/MLgYOL7GHhZ8MOk2bOlPPyKtO5SuAWvpFRJs7thWDG1mGtFXSRWgKz0O+C40HE0iccER5fzptgpDUtEX23fjjEugL8Cv+kHVxZ7Wb8actIuBn1d4n05ZTYirrmz0od8uVH3q23QUY+t/Lqk7fNwBrA/8bWSXGhwzny4vNh7qZ/JSDsKbqNwWMxVzOEps3LLqgZRN4m1S1o/D68Ca4aOpUl8JDghaXZLOYNkpf2Ay4At4gnrc4uAO/MwvsNscsxjlywrPQ3s2NdfL0glzXIxzf0s0VWo5ec4M2l2QRxzVJyUyMI+RCdrR8c5tME9rXDyMLM3Snm+0EP1LIOf46tnlfZYCvao5dZwq1Lze6yfaTebS3T6z1XHVwqlEO8oFBAvScrsvjZIKzou/2mM8Q0Ejk7ApIzUmZNO7JSC7nPlpO9QRFIFsBiXEgUzVjLHWRlpo7jmqYQp0uCsdHIWXiHasxwd4/AvAbunzQ4oNalOk765HjxhcDaeVCttYR6OrdekCnWUWAEEFwMlnVx1pREcYtCZlUpe0t3CbEnS7MJWGFq4flLSEtzKFBq8X9kC7+Skm3LSznGOX4R/KeGZreKaPA/TV/JTa6pGX0qz0k456fcD4G2ilY04K3G9a3BsCkaVU1wgIx3ZEiXnol6aXGkEZ3SYvRY6jnLUzVLwZ3LSERYdGnDVZcBNLfCTYWYflDPQNGloC5wLHER8e2fLyxncmoe7hput8EsuToUetq9S/Mvqn1Nm/yeOGDLSaMFKE4hgbNLskTjmKkdO2hg4wuD7wJAKTPGp4NctcFE5B92mSuv1g6sFh8QZnFulx1Owez1/rUIdJlaArPQIUNLVEFe29wUnJ81uLXegTmlUIqr/GfcBp78j6CRqMH1X4fpW7LLSRZRWlOH2lNnhccQwReo3AN5j5Vc/ct0wYpTZ0jjmK8YMaYOlUQnLQ4jap1XihWqRwTVL4aKRZvPKGSgrHSa40mC9uIJzq7UwD8Pr/WsV6jSxFk6cvgz0Dx1LE/vvBBzfblZ21aVOabcE/ALYI4a4VqeLqJ7s3Smzl2MZMTpwM5vSatT+W8rs3FjiALLS1axiSVpwatKsKsvCOWlEHvZWdBhpeyq39bRE8DvBhYWzGCXrktbvhd8KYllFcEU5IWX2m9BBxKEuEytATvqVwVmh42hynwLnCq5ImpXdiSgrbQucDhxAFfb/Ba8bPAI8avBo2uy9UsYpvBg8XsqzBlulzeJoaAB8fuc7w8p//xYkYGi5CWhFZkgb9MJogzHAXsA34p5jOZ8Krl8GFw83e7uskSTl4CiL9nm92EP11fUp4OXVbWKdLK2xdrTE523HwnvV4OS02f1xDDZNGtoKpxkcSfVWJcwgm4BHgUcWwxOjzD7uy4M56bcGx5cw570ps++W8Nzq4vlj4fduhQxuSZut9Of7YoLUMgySgm0VfY3uRmX2S1dkruCqXri2w+zDcgfrlDoS8Btglxhic0USzFsGW5f9clRD6jaxAnRJu+ajwxp1dbq5URk8ULgn+Eoc482QNlgW9dU8lkIh+2oR9Bq8IHjG4MU8TP0AulZUVCArzab4r7P5y2DEVmbvxBPx3+SkfzDIsfIvLxPsljR7si/jvSKt2wNpYJiixuEjgRFU+U65QSYBl/WHW+MoeDFTWnsJnENU49qv0ISRB/ZOmf0ldCBxquvECpCVLgdOCh2H+1yPwVUJOD9p9tc4Bpwi9WuDAxLwzxZ9GQUhWGwwTfCiwdQ8vJiIrg69VORQHyRgXLvZi5WIEyAj7Sm4n5X3BJ02D0ZtAF9ZAuu2wLqCdQ02ykd9XTchqiy0GRCyV263oj3x8X19EVitaNn3CIuu71X1hc19ya9SZr8IHUTc6j6xTpbWGAxTDYaGjsX9nY8MLs7Dr4ebLYxr0C4pnYcfAocDX4tr3Cp6vhcOrUbXmZx0nMHvKj1PheQMxifgj3G9oMHn5Qgvxu+k1oLHczC2HrtXrU7dJ1aATmmHFnjSoO57eDaguQbnLoHfx3nNo1Dsf6/CXuJ+wIC4xq6QuYKzknBjqQ0OSpGTTigcyIm1k04lCN4xmJCAO0rpiboq06UhvXAB8I9xjutK9m4Ctq7EIbpa0BCJFSArXUBUsNvVplmF4ue3lVr8fGWmSIPb4CDBEUTtxGppv2yq4HrghqRZnCUd+6xT2q0FJtToncz3gbsScEc7PBX3S8c06est8EvgB9TBy0UzKHTRGldq/9t60DCJtbAPN7FwQtHVKMHrwEX94YZKdFwp1DX+jsF3iQpPrB33HKuRB14EHhbcmTSbWuX5V2ia9PVWONuiBBPyxcOAlwwebIEHM/B0JZYCCweuTlF0MGlQ3OO7spyRMrsodBCV1DCJFWC6tGkvTOXLrbNc7ZkDXNIL4+Pcg/2inNQ/HxVz37fwwjWCeL9aTPCGQaegMw8vtsIT5ZZ8rKSM1J6An1m0JFqtU73vGkxMwIOCByu5/Fd4gTi1cP1prUrN40p2U8rsqNBBVFpDJVaArHQg0SlCVx/mA9e2wjVDzeZUcqLCqsbGwGYJ2DAP6ybg6waDifZo11j+GUG3wceCjw0+IWoCMbsF3vkQZu9gtriSMVfKDGlQLxxUSLA7EVNRhMLvU5ZoCXzyMphUjYNahbaSPyU62Daw0vO5kkxqg93rsTdwsRousUJZF/ZdOEuBuw2uSptNCh1MU5ESXZDMw/aCbxau22xKlGwHEH3Z9ldUi3ex4GOiqltv5eFtwTuCWUAuafZWNUPPSMOBkwr7623VnNsV5c1e2G642fuhA6mGhkysb0gDFsIkoovsrv68AFz9CdxZr1+EroKkRCaqQXwy3oyjHnxqsFOcpTtrXUMmVvh8v/V5wl5ud2UoLCvekYcbOswmh47HhZWT1snD9xQ1GdgydDyuT/KCA5Jm94YOpJoaNrEC5KQ9DB6ktq5fuNJ0ATe0ws2V3ot1NST6Ot0jAcdY1HHGl3vriMFP02aXhI6j2ho6sQJkpFMLlVZcY8gLngTuaoH/70m2MXVKm7XA9wrN0DcJHY8rnsGlabNTQ8cRQsMnVoCsdBtwWOg4XOzywCSLCgz8qdoHZ1y8OqXNElEz9IMNRoWOx5XlphQc3Sht4IrVFIl1ijRwDZjof1gbXg74i+Chj+EJP/hU+wr9Y/cDDga2CR2PK5/g/sVwQJwlTOtNUyRW+Pye27PARqFjcVXRDUwEHhFM+himeKINr1P6aguMNRhHVBnL/zw2lkndsOcos0WhAwmpaRIrRHfeCvtz1S5z58JbSlRqcLJFP17ogNebdamqWrqk9Xth+wTsmIedE7CtN8toTAYZg13jaD5f75oqsQLkpL0M7sNPCruoyEGXoBPI5aHTYGYLvJ0066nUpBOklqGwcT/YfBE8P8rs4zjGnS4NycOa/SEXorrNy9KG/aE9HzVF/xawA37wqFm8sQx23srsndCB1IKmS6wAGel4wW9Dx+FqlhGVLnwLmA3MNpj/WVnDBHxi8Ek+KnH4Ja1RpaJ1LKpctA6wTh6+pqic4uZEVY36A/TCsOFmM+IIOiOdKTiPqPn6DKIaxtPyMCsBc3phziCYs6lZdynjT5EG9oONBP/QAt8w2FAwJA8pwTC8RnezeqsXRlejdGW9aMrECpCTzjM4M3QcrrkJNonrNHNO+qXB2X34pR8YzE3AEoPFBt2KkvGCws+vbdCSgK9atLIziKjQim+huOW9bTA6bTYrdCC1pGmXQ5NmZ2WkQYITQ8fimlcrxHnIo6+de74m+Npnr9RawS8Q0We7c6vwnsE4T6pflggdQEhpOMngztBxuObVDbGdVDZv5O2q5z3B7mmzrtCB1KKmTqyY5RPwPeAvoUNxzWlGdC0oLp5YXTW8L9g9aZYLHUitau7ECiTNelqjy+nPh47FNdsMj2kAAAoRSURBVJ2eg816Yxyvf4xjObci7wnGeFJdtaZPrABDzRYsjS6svxA6Ftc8FOMycGG8LzVqdy5Gb/XCbp5UV88Ta8EIs49aYC+gaXoGurAs3oNLmCdWVzmvCHaJ62pYo/PE+gXDzD7oicqtZULH4prCezGPNzDm8ZwDyLZGy7/e5KKPPLEuZ6TZvDzsQVTQ3blKejfOweSJ1cXv+RbYzdszFscT6woMN3s/AWOJmms7VymxfrH6UrCL2UO9MGaY2QehA6k3nlhXot1sbg/sBrwUOhbXsGL9YgUGxDyea153t8H+w80Whg6kHnliXYWRZvOWwhjB5NCxuMZjMDfmIf2L1cXhunlwWIhGDo3CE+tqjDD7aBnsafBw6Fhcw4n7i7Ut5vFcczGDc1Jmx402WxY6mHrmibUPhpstXAD7Aw+GjsU1DvPE6mpHt8FhabOzQwfSCDyx9tEOZovnwX6C60PH4hqDQazFy+V7rK40Hybg22kzr5seE0+sRRhttiwJxxqcEzoWV/c+GQ6xNoU2T6yuSILX87Bju9nE0LE0Ek+sxTKztNnZgp/gnbVciQxyxN8M2Yvwu2I8l4cdOsymhw6k0XhiLVHS7DKi4v1xdidxTSLhBUhcQII7umFM2izu6l8OT6xlSZndLdgX+Ch0LK7uxJ5Y5SsobvXywBlJs8NGmcVaq9r9jSfWMiXNHhFsK/Di1K4Y/sXqqm2B4B9TZheFDqTReWKNQdJsZivsDDwZOhZXN7JxD2jR14hzKzJTsH3S7M+hA2kGnlhjMsRsvqL6wjeGjsXVNsE73inEVYvBxB7Y0fuoVo8n1hglzXpSZkcLfoZ/PbiVMKjI1QaBV8txX2QGl86HPUaazQsdTDPxxFoBSbMLBfsAH4aOxdWeSiVWgwWVGNfVpQWCQ9Nmp3p5wurzxFohSbMHLTrU1Bk6FldbEhVKrMDHFRrX1Zfphf3UCaEDaVaeWCsobTZrIGwH3BQ6Flcz5icr1OdX8EklxnX1w+CWXtjG91PD8sRaYZuadafgaIPT8D2wpid4sgIVlwAwv0/dzJYYHJ82O9J7qIbnibUaojKIFwvGAG+HDscFdW8Fx/al4Ob0GrBL2uza0IG4iCfWKkqaPdUPRho8EDoWF0RPL1TsHqH8sFzTMbilDUamzJ4PHYv7G0+sVTbEbH4a9jU4CVgaOh5XVQ91mFUs+eVj7pbjatoCwQ/TZkduYeZ76zXGE2sI0dLwr4mWhr1QQPO4q8Ljv1nh8V1teE6wddJsfOhA3Ip5Yg0oZfb0UtgKuDV0LK7iliyt4DIwRL01Kzm+Cy4PXNQNOyfNZoYOxq2cKnRA0RUpKx0GXAN8JXQsLn4G96TNDqjkHJ3SVxPw10rO4YKZLfh+0uyR0IG41fMv1hqRMrvdYDjwWOhYXPwEV1Z6jsL+7ZxKz+OqboJghCfV+uGJtYakzWanYKzgVMHi0PG42LycMqvKC5PBS9WYx1XFu8D+KbNDkma+ElFHPLHWGrN80uzSXkjjX68NQXBFFeeaXK25XEVN6AcdKbP7QgfiiueJtUZ1mL2Wgj0EP8SLq9ez9wfC7VWc7+kqzuXi95HB/0uZHTLEbH7oYFxpPLHWMjNLmo3vha0MHg4djivJ1ZuadVdrsk/gGWBRteZz8TG402BY2uyPoWNx5fFTwfVCUg6OAv7DYL3Q4bg+mdMLQ6pduzUr3QvsV805XVneMvjntNn9oQNx8fAv1noRfb3eAAwDrsMbqdc8wVmBCqL7vlwdEPQCVwhSnlQbi3+x1qlOaVQiuve6behY3ApNTcE2mFX9BSgnrWNRecMB1Z7b9dk0wXFJs2dDB+Li51+sdarDbMo82BE4BW8XVnPycHKIpApQuJpxT4i53Wp9anDaPBjlSbVx+RdrA5gqrdcG/w78wKAldDzNzuA/02b/FDKGrDQGeDRkDO7vGHBHL/x0uJm3jmxwnlgbSKc0THCpYO/QsTSxWa0wcqhZ8CtSWekpYKfQcTimG/w4bfZQ6EBcdfhScAPpMJueNtsH2B+YHjqeJrQUOLwWkiqAwQWhY2hyHwpOnAcdnlSbiyfWBpQyu28edBgcC8wOHU+zMDi7lhpOp+EB4MnQcTSbwmnf63pgaNLs6tFmy0LH5KrLl4Ib3EypbQkcLzjT779WjuBPSTgo1IGllclKWwmm+N571dwnOCNplgsdiAvHE2uTmCEN6oWTDU7GW9PFymDiWvDtalZYKkZWuhw4KXQcjczgmRY4vd1sYuhYXHieWJtMTlorD8cITgfWDx1PvTPIGOxaaNlWk96QBiyEF4BU6Fga0CuCnyfhLvwvU1fgibVJTZEGDoDjBKcabBg6njo1qxV2HWpW8z1QM9I2gqeAttCxNIg3BRcshutHmS0NHYyrLZ5Ym9xMqa0HjrJoqbA9dDx15AWDfdNm74UOpK+y0rFE5TBd6d5QdNr6hqRZT+hgXG3yxOoikrIwjmgPdhygwBHVLMH9y+DQQHWAy5KRrhScGDqOOvQGcH433OBfqG51PLG6L8lI7cCPBd8DBoaOp5YIrn0fTqzbKxRSIgs3A4eHDqVOTDe4ZAnc5AnV9ZUnVrdSU6TBbXBEAo4xGBU6nsDmAz9Kmd0dOpByTZH6DYBbgINDx1LDHjG4PA0P+KEkVyxPrK5PctJIg2OA/0uTXdcR3A8cmzR7N3QscZkgtSThWqIiIi7SA9wGXJ4yezl0MK5+eWJ1RZksrTEY9jU4jKgmcSO3Jnsb+HnK7MbQgVRKRjo1ARc2cwEJwesG/5mA37ebzQ0dj6t/nlhdyWZKa3fDdxNwqEUHnvqFjikmfzW4cAFcvYPZ4tDBVFqXNDYPNwIbhI6lipYAf0rAH9rh0VqrmOXqmydWF4tO6auCcQnYB9irTssnvgtctxQuG2HWVD1uC83Rr6axDzUZ8JzBrQm4udC31rnYeWJ18ZMSXbBdHvYxGKvo4FOtfs3mgYeB8d1wb7Of/Cx8vV5J49xpNuB5gwktMKHd7M3QAbnG54nVVdwUaeAasH0edhXsAnwLWDNgSN3ARIMH8nDvcLPXA8ZScyZILe1woOAMYGToeIolWAw8mof/Au5Pm3mHJ1dVnlhd1T0uta4LWwLDBSMs+udw4BsVmnK+wUsJeCkPjy+Bx0aZLarQXI1DUi5a1j8N2I3aLRqSBzoFj+fh4SXwqP/3dSF5YnU1Y7K0xiDYNAGb5mETwSbABoJBBmsLvmKwNl8+wdoNLBS8D7xrMAd4TzCrBabVQy3fWpeRNhIcRPRjB8Im2e7Ci9JzeXiiFZ4YZvZBwHic+zueWJ1zRclIGyVgrMH2wLcE6Upd1xHMy0OXogpIU1vguUXQ2ex74a62eWJ1zpVlmrRmK4w02FywKbAxsFGha9IAorKYbcCaghaDT4iKMSwk2g/90GBOAubm4R2iVYeZLTDDT+66evS/mEY1cKzJsQsAAAAASUVORK5CYII=;" parent="1" vertex="1">
          <mxGeometry x="222.82" y="883.44" width="75.62" height="75.62" as="geometry" />
        </mxCell>
      </root>
    </mxGraphModel>
  </diagram>
</mxfile>
